M48
METRIC,0000.00
T01C0.9
T02C1.3
T03C1.6
%
T01
X+002245Y+001743
X+002499Y+001743
X+002753Y+001743
X+003007Y+001743
X+003261Y+001743
X+003515Y+001743
X+003769Y+001743
X+004023Y+001743
X+004277Y+001743
X+004531Y+001743
X+004785Y+001743
X+005039Y+001743
X+005293Y+001743
X+005547Y+001743
X+005801Y+001743
X+006055Y+001743
X+006309Y+001743
X+006563Y+001743
X+006817Y+001743
X+007071Y+001743
X+007071Y+001489
X+006817Y+001489
X+006563Y+001489
X+006309Y+001489
X+006055Y+001489
X+005801Y+001489
X+005547Y+001489
X+005293Y+001489
X+005039Y+001489
X+004785Y+001489
X+004531Y+001489
X+004277Y+001489
X+004023Y+001489
X+003769Y+001489
X+003515Y+001489
X+003261Y+001489
X+003007Y+001489
X+002753Y+001489
X+002499Y+001489
X+002245Y+001489
X+002499Y+002204
X+002753Y+002204
X+003007Y+002204
X+003515Y+002204
X+003769Y+002950
X+003769Y+003204
X+003007Y+003204
X+003007Y+002950
X+002245Y+002950
X+002245Y+003204
X+001991Y+003998
X+001991Y+004252
X+002753Y+004252
X+002753Y+003998
X+003515Y+003998
X+003515Y+004252
X+004277Y+004252
X+004277Y+003998
X+004785Y+004283
X+005039Y+004283
X+005293Y+004283
X+005928Y+004283
X+006182Y+004283
X+006436Y+004283
X+006944Y+004283
X+007198Y+004283
X+007452Y+004283
X+007960Y+004283
X+008214Y+004283
X+008468Y+004283
X+007706Y+003267
X+007452Y+003267
X+007071Y+003267
X+006817Y+003267
X+006309Y+003267
X+006055Y+003267
X+005547Y+003267
X+005293Y+003267
X+005293Y+002759
X+005547Y+002759
X+006055Y+002759
X+006309Y+002759
X+006817Y+002759
X+007071Y+002759
X+007452Y+002759
X+007706Y+002759
X+007579Y+002204
X+007579Y+001696
X+008087Y+001696
X+008087Y+001442
X+008087Y+001950
X+004531Y+002950
X+004531Y+003204
T02
X+002200Y+005690
X+001467Y+006252
X+001467Y+006760
X+002200Y+006910
X+003400Y+006910
X+004089Y+006910
X+004181Y+008030
X+004689Y+008030
X+005197Y+008030
X+005705Y+008030
X+005740Y+006910
X+005289Y+006910
X+005289Y+005690
X+005740Y+005690
X+006940Y+005690
X+007391Y+005690
X+008591Y+005690
X+008591Y+006910
X+007391Y+006910
X+006940Y+006910
X+004089Y+005690
X+003400Y+005690
T03
X+002800Y+005490
X+004689Y+005490
X+006340Y+005490
X+007991Y+005490
T00
M30
