G04 DipTrace 3.1.0.1*
G04 Controller.GTL*
%MOMM*%
G04 #@! TF.FileFunction,Copper,L1,Top*
G04 #@! TF.Part,Single*
G04 #@! TA.AperFunction,ComponentPad*
%ADD13C,2.0*%
G04 #@! TA.AperFunction,Conductor*
%ADD14C,0.33*%
G04 #@! TA.AperFunction,ComponentPad*
%ADD16C,2.5*%
%ADD17C,1.5*%
%ADD18R,1.5X1.5*%
%FSLAX35Y35*%
G04*
G71*
G90*
G75*
G01*
G04 Top*
%LPD*%
X2457667Y8045667D2*
D13*
Y7791667D1*
X2203667Y7537667D1*
Y5505667D1*
X2803667Y6925667D2*
Y6683667D1*
X3219667Y6267667D1*
X3727667D1*
X3981667Y6013667D1*
Y5505667D1*
X3727667Y6267667D2*
X5378667D1*
X5632667Y6013667D1*
Y5505667D1*
X5378667Y6267667D2*
X7029667D1*
X7283667Y6013667D1*
Y5505667D1*
X2965667Y8045667D2*
Y7791667D1*
X3854667Y6902667D1*
X4558667D1*
X4581667Y6925667D1*
X6232667D2*
X5482667D1*
X4870667Y7537667D1*
X3981667D1*
X3473667Y8045667D1*
X3981667D2*
X5061167D1*
X5696167Y7410667D1*
X7398667D1*
X7883667Y6925667D1*
X1603667Y5705667D2*
D14*
Y4699290D1*
X1441667Y4537290D1*
Y4283293D2*
Y3965793D1*
Y3457793D2*
Y3203793D1*
Y2912033D1*
Y2249390D1*
Y1997293D1*
X1695667Y1743293D1*
Y3203793D2*
X1441667D1*
X1695667Y2949790D2*
X1479423D1*
X1441667Y2912033D1*
X2203667Y3457793D2*
Y3210030D1*
Y3011387D1*
X2142070Y2949790D1*
X1888070Y2695790D1*
X1634073Y2441793D1*
X1634070D1*
X1441667Y2249390D1*
X2457667Y3203793D2*
Y3210030D1*
X2203667D1*
X2457667Y2949790D2*
X2142070D1*
X2965667Y3457793D2*
Y3203793D1*
Y2949790D1*
X3219667D1*
X2965667D2*
X2711667Y2695790D1*
X1888070D1*
X3219667Y3203793D2*
X2965667D1*
X3727667Y3457793D2*
Y3203793D1*
Y2949790D1*
X3981667D1*
X3727667D2*
X3711790D1*
X3457790Y2695790D1*
X2965663D1*
X2711667Y2441793D1*
X1634073D1*
X3981667Y3203793D2*
X3727667D1*
X7283667Y1441667D2*
X7029667Y1187667D1*
X6775667D1*
X1584543D1*
X1441667Y1330543D1*
Y1997293D1*
X7029667Y1695667D2*
X6775667Y1441667D1*
Y1187667D1*
X3381667Y5705667D2*
Y5286667D1*
X2886293Y4791293D1*
X2457670D1*
X2203667Y4537290D1*
Y4283293D2*
Y3965793D1*
X5032667Y5705667D2*
Y5143793D1*
X4680167Y4791293D1*
X3727670D1*
X3473667Y4537290D1*
X2965667D1*
X3727667D2*
X6474040D1*
X6696290Y4759540D1*
Y5696167D1*
X6674167D1*
X6683667Y5705667D1*
X2965667Y4283293D2*
Y3965793D1*
X3727667Y4283293D2*
Y3965793D1*
X7029667Y2203667D2*
X6728040D1*
X6267667Y1743293D1*
X7791667Y1441667D2*
Y1949667D1*
X7537667Y2203667D1*
X7029667D1*
X4235667Y4283293D2*
Y2822790D1*
X3854670Y2441793D1*
X4437337D1*
X4934167D1*
X5251663Y2759290D1*
X5505667D1*
X6394667Y4283293D2*
X6013667Y3902293D1*
Y2632293D1*
X5823167Y2441793D1*
X4934167D1*
X6267667Y2759290D2*
X6140663D1*
X6013667Y2632293D1*
X6902667Y2759290D2*
X6585170Y2441793D1*
X5823167D1*
X7410667Y4283293D2*
Y2632293D1*
X7220167Y2441793D1*
X6585170D1*
X5251663Y2759290D2*
Y4156290D1*
X5378667Y4283293D1*
X3854670Y2441793D2*
X2949793D1*
X2648167Y2140167D1*
X2330667D1*
X2203667Y2013167D1*
Y1743293D1*
X4743667Y2759290D2*
Y2748123D1*
X4437337Y2441793D1*
D16*
X2203667Y5505667D3*
D13*
X1603667Y5705667D3*
X2803667D3*
X1603667Y6925667D3*
X2803667D3*
X2457667Y8045667D3*
X2965667D3*
X3473667D3*
X3981667D3*
D17*
X1695667Y1743293D3*
X1949667D3*
X2203667D3*
X2457667D3*
X2711667D3*
X2965667D3*
X3219667D3*
X3473667D3*
X3727667D3*
X3981667D3*
X4235667D3*
X4489667D3*
X4743667D3*
X4997667D3*
X5251667D3*
X5505667D3*
X5759667D3*
X6013667D3*
X6267667D3*
X6521667D3*
X1695667Y1489290D3*
X1949667D3*
X2457667D3*
X2203667D3*
X2711667D3*
X2965667D3*
X3219667D3*
X3473667D3*
X3727667D3*
X3981667D3*
X4235667D3*
X4489667D3*
X4743667D3*
X4997667D3*
X5251667D3*
X5505667D3*
X5759667D3*
X6013667D3*
X6267667D3*
X6521667D3*
X1441667Y4537290D3*
Y4283293D3*
Y3965793D3*
Y3457793D3*
X1695667Y3203793D3*
Y2949790D3*
X4743667Y4283293D3*
X4489667D3*
D18*
X4235667D3*
D17*
X2203667Y4537290D3*
Y4283293D3*
Y3965793D3*
Y3457793D3*
X2457667Y3203793D3*
Y2949790D3*
X2965667Y4537290D3*
Y4283293D3*
Y3965793D3*
Y3457793D3*
X3219667Y3203793D3*
Y2949790D3*
X3727667Y4537290D3*
Y4283293D3*
Y3965793D3*
Y3457793D3*
X3981667Y3203793D3*
Y2949790D3*
X4743667Y3267293D3*
Y2759290D3*
X4997667Y3267293D3*
Y2759290D3*
X5886667Y4283293D3*
X5632667D3*
D18*
X5378667D3*
D17*
X5505667Y3267293D3*
X5759667D3*
X5505667Y2759290D3*
X5759667D3*
X6902667Y4283293D3*
X6648667D3*
D18*
X6394667D3*
D17*
X7918667D3*
X7664667D3*
D18*
X7410667D3*
D17*
X6267667Y3267293D3*
X6521667D3*
X6267667Y2759290D3*
X6521667D3*
X6902667Y3267293D3*
X7156667D3*
X6902667Y2759290D3*
X7156667D3*
X7791667Y1441667D3*
X7537667D3*
X7029667Y2203667D3*
Y1695667D3*
X7283667Y1441667D3*
D16*
X3981667Y5505667D3*
D13*
X3381667Y5705667D3*
X4581667D3*
X3381667Y6925667D3*
X4581667D3*
D16*
X5632667Y5505667D3*
D13*
X5032667Y5705667D3*
X6232667D3*
X5032667Y6925667D3*
X6232667D3*
D16*
X7283667Y5505667D3*
D13*
X6683667Y5705667D3*
X7883667D3*
X6683667Y6925667D3*
X7883667D3*
M02*
