G04 DipTrace 3.1.0.1*
G04 Controller.GTO*
%MOMM*%
G04 #@! TF.FileFunction,Legend,Top*
G04 #@! TF.Part,Single*
%ADD10C,0.25*%
%ADD15C,0.3*%
%ADD30C,0.19608*%
%ADD31C,0.23529*%
%ADD32C,0.39216*%
%FSLAX35Y35*%
G04*
G71*
G90*
G75*
G01*
G04 TopSilk*
%LPD*%
X1428667Y5365667D2*
D10*
Y7275667D1*
X2978667D1*
Y5365667D1*
X1428667D1*
X3206667D2*
Y7275667D1*
X4756667D1*
Y5365667D1*
X3206667D1*
X4857667D2*
Y7275667D1*
X6407667D1*
Y5365667D1*
X4857667D1*
X6508667D2*
Y7275667D1*
X8058667D1*
Y5365667D1*
X6508667D1*
X2203667Y8299667D2*
D15*
X4235667D1*
Y7791667D1*
X2203667D1*
Y8299667D1*
X1552790Y1870293D2*
X6680417D1*
Y1346417D1*
X1552790D1*
Y1870293D1*
X4108667Y4426167D2*
X4870667D1*
Y4172167D1*
X4108667D1*
Y4426167D1*
X5251667D2*
X6013667D1*
Y4172167D1*
X5251667D1*
Y4426167D1*
X6267667D2*
X7029667D1*
Y4172167D1*
X6267667D1*
Y4426167D1*
X7283667D2*
X8045667D1*
Y4172167D1*
X7283667D1*
Y4426167D1*
X7156667Y1568667D2*
X7918667D1*
Y1314667D1*
X7156667D1*
Y1568667D1*
X1314667Y4680167D2*
X1568667D1*
Y4172167D1*
X1314667D1*
Y4680167D1*
X2076667D2*
X2330667D1*
Y4172167D1*
X2076667D1*
Y4680167D1*
X2838667D2*
X3092667D1*
Y4172167D1*
X2838667D1*
Y4680167D1*
X3600667D2*
X3854667D1*
Y4172167D1*
X3600667D1*
Y4680167D1*
X2102236Y5194982D2*
D30*
Y5322592D1*
X2053663Y5194982D1*
X2005090Y5322592D1*
Y5194982D1*
X2238739D2*
X2190025Y5322592D1*
X2141452Y5194982D1*
X2159702Y5237519D2*
X2220489D1*
X2277954Y5322592D2*
Y5194982D1*
X2402243Y5322592D2*
Y5194982D1*
X2317170Y5322592D1*
Y5194982D1*
X3989364Y5304342D2*
X3977291Y5316555D1*
X3959041Y5322592D1*
X3934754D1*
X3916504Y5316555D1*
X3904291Y5304342D1*
Y5292269D1*
X3910467Y5280055D1*
X3916504Y5274019D1*
X3928577Y5267982D1*
X3965077Y5255769D1*
X3977291Y5249732D1*
X3983327Y5243555D1*
X3989364Y5231482D1*
Y5213232D1*
X3977291Y5201159D1*
X3959041Y5194982D1*
X3934754D1*
X3916504Y5201159D1*
X3904291Y5213232D1*
X4028579Y5298165D2*
X4040793Y5304342D1*
X4059043Y5322451D1*
Y5194982D1*
X5613059Y5304342D2*
X5600986Y5316555D1*
X5582736Y5322592D1*
X5558449D1*
X5540199Y5316555D1*
X5527986Y5304342D1*
Y5292269D1*
X5534163Y5280055D1*
X5540199Y5274019D1*
X5552272Y5267982D1*
X5588772Y5255769D1*
X5600986Y5249732D1*
X5607022Y5243555D1*
X5613059Y5231482D1*
Y5213232D1*
X5600986Y5201159D1*
X5582736Y5194982D1*
X5558449D1*
X5540199Y5201159D1*
X5527986Y5213232D1*
X5658451Y5292128D2*
Y5298165D1*
X5664488Y5310378D1*
X5670525Y5316415D1*
X5682738Y5322451D1*
X5707025D1*
X5719098Y5316415D1*
X5725134Y5310378D1*
X5731311Y5298165D1*
Y5286092D1*
X5725134Y5273878D1*
X5713061Y5255769D1*
X5652275Y5194982D1*
X5737348D1*
X7264059Y5304342D2*
X7251986Y5316555D1*
X7233736Y5322592D1*
X7209449D1*
X7191199Y5316555D1*
X7178986Y5304342D1*
Y5292269D1*
X7185163Y5280055D1*
X7191199Y5274019D1*
X7203272Y5267982D1*
X7239772Y5255769D1*
X7251986Y5249732D1*
X7258022Y5243555D1*
X7264059Y5231482D1*
Y5213232D1*
X7251986Y5201159D1*
X7233736Y5194982D1*
X7209449D1*
X7191199Y5201159D1*
X7178986Y5213232D1*
X7315488Y5322451D2*
X7382171D1*
X7345811Y5273878D1*
X7364061D1*
X7376134Y5267842D1*
X7382171Y5261805D1*
X7388348Y5243555D1*
Y5231482D1*
X7382171Y5213232D1*
X7370098Y5201019D1*
X7351848Y5194982D1*
X7333598D1*
X7315488Y5201019D1*
X7309451Y5207195D1*
X7303275Y5219269D1*
X1648041Y4465613D2*
D31*
Y4312482D1*
X1695100Y4414569D2*
Y4312482D1*
Y4385426D2*
X1717000Y4407326D1*
X1731656Y4414569D1*
X1753388D1*
X1768044Y4407326D1*
X1775288Y4385426D1*
Y4312482D1*
Y4385426D2*
X1797188Y4407326D1*
X1811844Y4414569D1*
X1833576D1*
X1848232Y4407326D1*
X1855644Y4385426D1*
Y4312482D1*
X1234074Y3782825D2*
X1314093D1*
X1270462Y3724537D1*
X1292362D1*
X1306850Y3717293D1*
X1314093Y3710049D1*
X1321506Y3688149D1*
Y3673662D1*
X1314093Y3651762D1*
X1299606Y3637106D1*
X1277706Y3629862D1*
X1255806D1*
X1234074Y3637106D1*
X1226830Y3644518D1*
X1219418Y3659006D1*
X1383221Y3782825D2*
X1463240D1*
X1419608Y3724537D1*
X1441508D1*
X1455996Y3717293D1*
X1463240Y3710049D1*
X1470652Y3688149D1*
Y3673662D1*
X1463240Y3651762D1*
X1448752Y3637106D1*
X1426852Y3629862D1*
X1404952D1*
X1383221Y3637106D1*
X1375977Y3644518D1*
X1368565Y3659006D1*
X1561511Y3782825D2*
X1539611Y3775581D1*
X1524955Y3753681D1*
X1517711Y3717293D1*
Y3695393D1*
X1524955Y3659006D1*
X1539611Y3637106D1*
X1561511Y3629862D1*
X1575999D1*
X1597899Y3637106D1*
X1612386Y3659006D1*
X1619799Y3695393D1*
Y3717293D1*
X1612386Y3753681D1*
X1597899Y3775581D1*
X1575999Y3782825D1*
X1561511D1*
X1612386Y3753681D2*
X1524955Y3659006D1*
X1666858Y3731949D2*
Y3629862D1*
Y3688149D2*
X1674270Y3710049D1*
X1688758Y3724706D1*
X1703414Y3731949D1*
X1725314D1*
X2410041Y4465613D2*
Y4312482D1*
X2457100Y4436301D2*
X2471756Y4443713D1*
X2493656Y4465445D1*
Y4312482D1*
X3799223Y2105449D2*
Y1988705D1*
X3791979Y1966973D1*
X3784735Y1959561D1*
X3770079Y1952317D1*
X3748179D1*
X3733691Y1959561D1*
X3799223Y2083549D2*
X3784735Y2098037D1*
X3770079Y2105449D1*
X3748179D1*
X3733691Y2098037D1*
X3719035Y2083549D1*
X3711791Y2061649D1*
Y2046993D1*
X3719035Y2025261D1*
X3733691Y2010605D1*
X3748179Y2003361D1*
X3770079D1*
X3784735Y2010605D1*
X3799223Y2025261D1*
X3846282Y2112693D2*
Y1959561D1*
Y2090793D2*
X3860938Y2105280D1*
X3875426Y2112693D1*
X3897326D1*
X3911982Y2105280D1*
X3926469Y2090793D1*
X3933882Y2068893D1*
Y2054237D1*
X3926469Y2032505D1*
X3911982Y2017849D1*
X3897326Y2010605D1*
X3875426D1*
X3860938Y2017849D1*
X3846282Y2032505D1*
X3980941Y2163737D2*
X3988184Y2156493D1*
X3995597Y2163737D1*
X3988184Y2171149D1*
X3980941Y2163737D1*
X3988184Y2112693D2*
Y2010605D1*
X4079043Y2112693D2*
X4064556Y2105449D1*
X4049899Y2090793D1*
X4042656Y2068893D1*
Y2054405D1*
X4049899Y2032505D1*
X4064556Y2018017D1*
X4079043Y2010605D1*
X4100943D1*
X4115599Y2018017D1*
X4130087Y2032505D1*
X4137499Y2054405D1*
Y2068893D1*
X4130087Y2090793D1*
X4115599Y2105449D1*
X4100943Y2112693D1*
X4079043D1*
X3172041Y4465613D2*
Y4312482D1*
X3226513Y4429057D2*
Y4436301D1*
X3233756Y4450957D1*
X3241000Y4458201D1*
X3255656Y4465445D1*
X3284800D1*
X3299288Y4458201D1*
X3306532Y4450957D1*
X3313944Y4436301D1*
Y4421813D1*
X3306532Y4407157D1*
X3292044Y4385426D1*
X3219100Y4312482D1*
X3321188D1*
X3485431Y4910113D2*
Y4756982D1*
X3547146Y4909945D2*
X3627166D1*
X3583534Y4851657D1*
X3605434D1*
X3619922Y4844413D1*
X3627166Y4837169D1*
X3634578Y4815269D1*
Y4800782D1*
X3627166Y4778882D1*
X3612678Y4764226D1*
X3590778Y4756982D1*
X3568878D1*
X3547146Y4764226D1*
X3539903Y4771638D1*
X3532490Y4786126D1*
X1996074Y3782825D2*
X2076093D1*
X2032462Y3724537D1*
X2054362D1*
X2068850Y3717293D1*
X2076093Y3710049D1*
X2083506Y3688149D1*
Y3673662D1*
X2076093Y3651762D1*
X2061606Y3637106D1*
X2039706Y3629862D1*
X2017806D1*
X1996074Y3637106D1*
X1988830Y3644518D1*
X1981418Y3659006D1*
X2145221Y3782825D2*
X2225240D1*
X2181608Y3724537D1*
X2203508D1*
X2217996Y3717293D1*
X2225240Y3710049D1*
X2232652Y3688149D1*
Y3673662D1*
X2225240Y3651762D1*
X2210752Y3637106D1*
X2188852Y3629862D1*
X2166952D1*
X2145221Y3637106D1*
X2137977Y3644518D1*
X2130565Y3659006D1*
X2323511Y3782825D2*
X2301611Y3775581D1*
X2286955Y3753681D1*
X2279711Y3717293D1*
Y3695393D1*
X2286955Y3659006D1*
X2301611Y3637106D1*
X2323511Y3629862D1*
X2337999D1*
X2359899Y3637106D1*
X2374386Y3659006D1*
X2381799Y3695393D1*
Y3717293D1*
X2374386Y3753681D1*
X2359899Y3775581D1*
X2337999Y3782825D1*
X2323511D1*
X2374386Y3753681D2*
X2286955Y3659006D1*
X2428858Y3731949D2*
Y3629862D1*
Y3688149D2*
X2436270Y3710049D1*
X2450758Y3724706D1*
X2465414Y3731949D1*
X2487314D1*
X2758074Y3782825D2*
X2838093D1*
X2794462Y3724537D1*
X2816362D1*
X2830850Y3717293D1*
X2838093Y3710049D1*
X2845506Y3688149D1*
Y3673662D1*
X2838093Y3651762D1*
X2823606Y3637106D1*
X2801706Y3629862D1*
X2779806D1*
X2758074Y3637106D1*
X2750830Y3644518D1*
X2743418Y3659006D1*
X2907221Y3782825D2*
X2987240D1*
X2943608Y3724537D1*
X2965508D1*
X2979996Y3717293D1*
X2987240Y3710049D1*
X2994652Y3688149D1*
Y3673662D1*
X2987240Y3651762D1*
X2972752Y3637106D1*
X2950852Y3629862D1*
X2928952D1*
X2907221Y3637106D1*
X2899977Y3644518D1*
X2892565Y3659006D1*
X3085511Y3782825D2*
X3063611Y3775581D1*
X3048955Y3753681D1*
X3041711Y3717293D1*
Y3695393D1*
X3048955Y3659006D1*
X3063611Y3637106D1*
X3085511Y3629862D1*
X3099999D1*
X3121899Y3637106D1*
X3136386Y3659006D1*
X3143799Y3695393D1*
Y3717293D1*
X3136386Y3753681D1*
X3121899Y3775581D1*
X3099999Y3782825D1*
X3085511D1*
X3136386Y3753681D2*
X3048955Y3659006D1*
X3190858Y3731949D2*
Y3629862D1*
Y3688149D2*
X3198270Y3710049D1*
X3212758Y3724706D1*
X3227414Y3731949D1*
X3249314D1*
X3520074Y3782825D2*
X3600093D1*
X3556462Y3724537D1*
X3578362D1*
X3592850Y3717293D1*
X3600093Y3710049D1*
X3607506Y3688149D1*
Y3673662D1*
X3600093Y3651762D1*
X3585606Y3637106D1*
X3563706Y3629862D1*
X3541806D1*
X3520074Y3637106D1*
X3512830Y3644518D1*
X3505418Y3659006D1*
X3669221Y3782825D2*
X3749240D1*
X3705608Y3724537D1*
X3727508D1*
X3741996Y3717293D1*
X3749240Y3710049D1*
X3756652Y3688149D1*
Y3673662D1*
X3749240Y3651762D1*
X3734752Y3637106D1*
X3712852Y3629862D1*
X3690952D1*
X3669221Y3637106D1*
X3661977Y3644518D1*
X3654565Y3659006D1*
X3847511Y3782825D2*
X3825611Y3775581D1*
X3810955Y3753681D1*
X3803711Y3717293D1*
Y3695393D1*
X3810955Y3659006D1*
X3825611Y3637106D1*
X3847511Y3629862D1*
X3861999D1*
X3883899Y3637106D1*
X3898386Y3659006D1*
X3905799Y3695393D1*
Y3717293D1*
X3898386Y3753681D1*
X3883899Y3775581D1*
X3861999Y3782825D1*
X3847511D1*
X3898386Y3753681D2*
X3810955Y3659006D1*
X3952858Y3731949D2*
Y3629862D1*
Y3688149D2*
X3960270Y3710049D1*
X3974758Y3724706D1*
X3989414Y3731949D1*
X4011314D1*
X1200022Y8108696D2*
D32*
Y8120769D1*
X1212095Y8145196D1*
X1224168Y8157269D1*
X1248595Y8169342D1*
X1297168D1*
X1321314Y8157269D1*
X1333387Y8145196D1*
X1345741Y8120769D1*
Y8096623D1*
X1333387Y8072196D1*
X1309241Y8035977D1*
X1187668Y7914404D1*
X1357814D1*
X1448599Y8108696D2*
Y8120769D1*
X1460672Y8145196D1*
X1472745Y8157269D1*
X1497172Y8169342D1*
X1545745D1*
X1569892Y8157269D1*
X1581965Y8145196D1*
X1594318Y8120769D1*
Y8096623D1*
X1581965Y8072196D1*
X1557818Y8035977D1*
X1436245Y7914404D1*
X1606392D1*
X1757823Y8169342D2*
X1721323Y8157269D1*
X1696896Y8120769D1*
X1684823Y8060123D1*
Y8023623D1*
X1696896Y7962977D1*
X1721323Y7926477D1*
X1757823Y7914404D1*
X1781969D1*
X1818469Y7926477D1*
X1842615Y7962977D1*
X1854969Y8023623D1*
Y8060123D1*
X1842615Y8120769D1*
X1818469Y8157269D1*
X1781969Y8169342D1*
X1757823D1*
X1842615Y8120769D2*
X1696896Y7962977D1*
X1933400Y8084550D2*
X2006400Y7914404D1*
X2079120Y8084550D1*
X1656100Y2211195D2*
D31*
X1583324D1*
X1576080Y2145663D1*
X1583324Y2152907D1*
X1605224Y2160319D1*
X1626956D1*
X1648856Y2152907D1*
X1663512Y2138419D1*
X1670756Y2116519D1*
Y2102032D1*
X1663512Y2080132D1*
X1648856Y2065476D1*
X1626956Y2058232D1*
X1605224D1*
X1583324Y2065476D1*
X1576080Y2072888D1*
X1568668Y2087376D1*
X1717815Y2160319D2*
X1761615Y2058232D1*
X1805246Y2160319D1*
X4384568Y4116367D2*
Y3992379D1*
X4391812Y3970647D1*
X4406468Y3963235D1*
X4420956D1*
X4362668Y4065323D2*
X4413712D1*
X4468015D2*
Y3963235D1*
Y4036179D2*
X4489915Y4058079D1*
X4504571Y4065323D1*
X4526302D1*
X4540958Y4058079D1*
X4548202Y4036179D1*
Y3963235D1*
Y4036179D2*
X4570102Y4058079D1*
X4584758Y4065323D1*
X4606490D1*
X4621146Y4058079D1*
X4628558Y4036179D1*
Y3963235D1*
X5606941Y4084617D2*
Y3960629D1*
X5614185Y3938897D1*
X5628841Y3931485D1*
X5643329D1*
X5585041Y4033573D2*
X5636085D1*
X5690388Y4055304D2*
X5705044Y4062717D1*
X5726944Y4084448D1*
Y3931485D1*
X6591191Y4100490D2*
Y3976502D1*
X6598435Y3954771D1*
X6613091Y3947358D1*
X6627579D1*
X6569291Y4049446D2*
X6620335D1*
X6682050Y4063934D2*
Y4071178D1*
X6689294Y4085834D1*
X6696538Y4093078D1*
X6711194Y4100321D1*
X6740338D1*
X6754826Y4093078D1*
X6762069Y4085834D1*
X6769482Y4071178D1*
Y4056690D1*
X6762069Y4042034D1*
X6747582Y4020302D1*
X6674638Y3947358D1*
X6776726D1*
X7654818Y4100490D2*
Y3976502D1*
X7662062Y3954771D1*
X7676718Y3947358D1*
X7691206D1*
X7632918Y4049446D2*
X7683962D1*
X7752921Y4100321D2*
X7832940D1*
X7789308Y4042034D1*
X7811208D1*
X7825696Y4034790D1*
X7832940Y4027546D1*
X7840352Y4005646D1*
Y3991158D1*
X7832940Y3969258D1*
X7818452Y3954602D1*
X7796552Y3947358D1*
X7774652D1*
X7752921Y3954602D1*
X7745677Y3962015D1*
X7738265Y3976502D1*
X4711918Y3071054D2*
X4726574Y3078467D1*
X4748474Y3100198D1*
Y2947235D1*
X4839333Y3100198D2*
X4817433Y3092954D1*
X4802777Y3071054D1*
X4795533Y3034667D1*
Y3012767D1*
X4802777Y2976379D1*
X4817433Y2954479D1*
X4839333Y2947235D1*
X4853821D1*
X4875721Y2954479D1*
X4890208Y2976379D1*
X4897621Y3012767D1*
Y3034667D1*
X4890208Y3071054D1*
X4875721Y3092954D1*
X4853821Y3100198D1*
X4839333D1*
X4890208Y3071054D2*
X4802777Y2976379D1*
X4944680Y3100367D2*
Y2947235D1*
X5017623Y3049323D2*
X4944680Y2976379D1*
X4973823Y3005523D2*
X5024867Y2947235D1*
X5489791Y3071054D2*
X5504448Y3078467D1*
X5526348Y3100198D1*
Y2947235D1*
X5617206Y3100198D2*
X5595306Y3092954D1*
X5580650Y3071054D1*
X5573406Y3034667D1*
Y3012767D1*
X5580650Y2976379D1*
X5595306Y2954479D1*
X5617206Y2947235D1*
X5631694D1*
X5653594Y2954479D1*
X5668082Y2976379D1*
X5675494Y3012767D1*
Y3034667D1*
X5668082Y3071054D1*
X5653594Y3092954D1*
X5631694Y3100198D1*
X5617206D1*
X5668082Y3071054D2*
X5580650Y2976379D1*
X5722553Y3100367D2*
Y2947235D1*
X5795497Y3049323D2*
X5722553Y2976379D1*
X5751697Y3005523D2*
X5802741Y2947235D1*
X6235918Y3071054D2*
X6250574Y3078467D1*
X6272474Y3100198D1*
Y2947235D1*
X6363333Y3100198D2*
X6341433Y3092954D1*
X6326777Y3071054D1*
X6319533Y3034667D1*
Y3012767D1*
X6326777Y2976379D1*
X6341433Y2954479D1*
X6363333Y2947235D1*
X6377821D1*
X6399721Y2954479D1*
X6414208Y2976379D1*
X6421621Y3012767D1*
Y3034667D1*
X6414208Y3071054D1*
X6399721Y3092954D1*
X6377821Y3100198D1*
X6363333D1*
X6414208Y3071054D2*
X6326777Y2976379D1*
X6468680Y3100367D2*
Y2947235D1*
X6541623Y3049323D2*
X6468680Y2976379D1*
X6497823Y3005523D2*
X6548867Y2947235D1*
X6870918Y3071054D2*
X6885574Y3078467D1*
X6907474Y3100198D1*
Y2947235D1*
X6998333Y3100198D2*
X6976433Y3092954D1*
X6961777Y3071054D1*
X6954533Y3034667D1*
Y3012767D1*
X6961777Y2976379D1*
X6976433Y2954479D1*
X6998333Y2947235D1*
X7012821D1*
X7034721Y2954479D1*
X7049208Y2976379D1*
X7056621Y3012767D1*
Y3034667D1*
X7049208Y3071054D1*
X7034721Y3092954D1*
X7012821Y3100198D1*
X6998333D1*
X7049208Y3071054D2*
X6961777Y2976379D1*
X7103680Y3100367D2*
Y2947235D1*
X7176623Y3049323D2*
X7103680Y2976379D1*
X7132823Y3005523D2*
X7183867Y2947235D1*
X7210318Y1814490D2*
Y1690502D1*
X7217562Y1668771D1*
X7232218Y1661358D1*
X7246706D1*
X7188418Y1763446D2*
X7239462D1*
X7293765Y1719646D2*
X7381196D1*
Y1734302D1*
X7373952Y1748958D1*
X7366708Y1756202D1*
X7352052Y1763446D1*
X7330152D1*
X7315665Y1756202D1*
X7301008Y1741546D1*
X7293765Y1719646D1*
Y1705158D1*
X7301008Y1683258D1*
X7315665Y1668771D1*
X7330152Y1661358D1*
X7352052D1*
X7366708Y1668771D1*
X7381196Y1683258D1*
X7428255Y1763446D2*
Y1661358D1*
Y1734302D2*
X7450155Y1756202D1*
X7464811Y1763446D1*
X7486543D1*
X7501199Y1756202D1*
X7508443Y1734302D1*
Y1661358D1*
Y1734302D2*
X7530343Y1756202D1*
X7544999Y1763446D1*
X7566730D1*
X7581386Y1756202D1*
X7588799Y1734302D1*
Y1661358D1*
X7635858Y1763446D2*
Y1610315D1*
Y1741546D2*
X7650514Y1756034D1*
X7665001Y1763446D1*
X7686901D1*
X7701558Y1756034D1*
X7716045Y1741546D1*
X7723458Y1719646D1*
Y1704990D1*
X7716045Y1683258D1*
X7701558Y1668602D1*
X7686901Y1661358D1*
X7665001D1*
X7650514Y1668602D1*
X7635858Y1683258D1*
X7253950Y1263706D2*
Y1132474D1*
X7188418Y1198006D2*
X7319650D1*
X7514844Y1198090D2*
X7599075D1*
X7881701Y1274740D2*
Y1121608D1*
Y1201796D2*
X7867213Y1216452D1*
X7852557Y1223696D1*
X7830657D1*
X7816169Y1216452D1*
X7801513Y1201796D1*
X7794269Y1179896D1*
Y1165408D1*
X7801513Y1143508D1*
X7816169Y1129021D1*
X7830657Y1121608D1*
X7852557D1*
X7867213Y1129021D1*
X7881701Y1143508D1*
X6912112Y1867735D2*
Y2020698D1*
X6839168Y1918779D1*
X6948500D1*
X7002802Y1882391D2*
X6995558Y1874979D1*
X7002802Y1867735D1*
X7010215Y1874979D1*
X7002802Y1882391D1*
X7086417Y1867735D2*
X7159361Y2020698D1*
X7057273D1*
X7206420Y2020867D2*
Y1867735D1*
X7279364Y1969823D2*
X7206420Y1896879D1*
X7235564Y1926023D2*
X7286608Y1867735D1*
X5696167Y8196241D2*
Y8043110D1*
X5761867D1*
X5783767Y8050522D1*
X5791011Y8057766D1*
X5798254Y8072254D1*
Y8094154D1*
X5791011Y8108810D1*
X5783767Y8116054D1*
X5761867Y8123297D1*
X5783767Y8130710D1*
X5791011Y8137954D1*
X5798254Y8152441D1*
Y8167097D1*
X5791011Y8181585D1*
X5783767Y8188997D1*
X5761867Y8196241D1*
X5696167D1*
Y8123297D2*
X5761867D1*
X5881701Y8145197D2*
X5867213Y8137954D1*
X5852557Y8123297D1*
X5845313Y8101397D1*
Y8086910D1*
X5852557Y8065010D1*
X5867213Y8050522D1*
X5881701Y8043110D1*
X5903601D1*
X5918257Y8050522D1*
X5932745Y8065010D1*
X5940157Y8086910D1*
Y8101397D1*
X5932745Y8123297D1*
X5918257Y8137954D1*
X5903601Y8145197D1*
X5881701D1*
X5987216Y8196241D2*
Y8043110D1*
X6056175Y8196241D2*
Y8072254D1*
X6063419Y8050522D1*
X6078075Y8043110D1*
X6092562D1*
X6034275Y8145197D2*
X6085319D1*
X6139621Y8196241D2*
Y8043110D1*
Y8116054D2*
X6161521Y8137954D1*
X6176177Y8145197D1*
X6198077D1*
X6212565Y8137954D1*
X6219809Y8116054D1*
Y8043110D1*
X6354299Y8145197D2*
Y8043110D1*
Y8123297D2*
X6339812Y8137954D1*
X6325155Y8145197D1*
X6303424D1*
X6288768Y8137954D1*
X6274280Y8123297D1*
X6266868Y8101397D1*
Y8086910D1*
X6274280Y8065010D1*
X6288768Y8050522D1*
X6303424Y8043110D1*
X6325155D1*
X6339812Y8050522D1*
X6354299Y8065010D1*
X6401358Y8145197D2*
Y8043110D1*
Y8101397D2*
X6408770Y8123297D1*
X6423258Y8137954D1*
X6437914Y8145197D1*
X6459814D1*
X6655009Y8101397D2*
X6742440D1*
Y8116054D1*
X6735196Y8130710D1*
X6727953Y8137954D1*
X6713296Y8145197D1*
X6691396D1*
X6676909Y8137954D1*
X6662253Y8123297D1*
X6655009Y8101397D1*
Y8086910D1*
X6662253Y8065010D1*
X6676909Y8050522D1*
X6691396Y8043110D1*
X6713296D1*
X6727953Y8050522D1*
X6742440Y8065010D1*
X6789499Y8145197D2*
Y8043110D1*
Y8116054D2*
X6811399Y8137954D1*
X6826055Y8145197D1*
X6847787D1*
X6862443Y8137954D1*
X6869687Y8116054D1*
Y8043110D1*
X6938646Y8196241D2*
Y8072254D1*
X6945890Y8050522D1*
X6960546Y8043110D1*
X6975033D1*
X6916746Y8145197D2*
X6967790D1*
X7022092Y8101397D2*
X7109524D1*
Y8116054D1*
X7102280Y8130710D1*
X7095036Y8137954D1*
X7080380Y8145197D1*
X7058480D1*
X7043992Y8137954D1*
X7029336Y8123297D1*
X7022092Y8101397D1*
Y8086910D1*
X7029336Y8065010D1*
X7043992Y8050522D1*
X7058480Y8043110D1*
X7080380D1*
X7095036Y8050522D1*
X7109524Y8065010D1*
X7156583Y8145197D2*
Y8043110D1*
Y8101397D2*
X7163995Y8123297D1*
X7178483Y8137954D1*
X7193139Y8145197D1*
X7215039D1*
X7262098D2*
Y7992066D1*
Y8123297D2*
X7276754Y8137785D1*
X7291241Y8145197D1*
X7313141D1*
X7327798Y8137785D1*
X7342285Y8123297D1*
X7349698Y8101397D1*
Y8086741D1*
X7342285Y8065010D1*
X7327798Y8050354D1*
X7313141Y8043110D1*
X7291241D1*
X7276754Y8050354D1*
X7262098Y8065010D1*
X7396756Y8145197D2*
Y8043110D1*
Y8101397D2*
X7404169Y8123297D1*
X7418656Y8137954D1*
X7433313Y8145197D1*
X7455213D1*
X7502271Y8196241D2*
X7509515Y8188997D1*
X7516927Y8196241D1*
X7509515Y8203654D1*
X7502271Y8196241D1*
X7509515Y8145197D2*
Y8043110D1*
X7644174Y8123297D2*
X7636930Y8137954D1*
X7615030Y8145197D1*
X7593130D1*
X7571230Y8137954D1*
X7563986Y8123297D1*
X7571230Y8108810D1*
X7585886Y8101397D1*
X7622274Y8094154D1*
X7636930Y8086910D1*
X7644174Y8072254D1*
Y8065010D1*
X7636930Y8050522D1*
X7615030Y8043110D1*
X7593130D1*
X7571230Y8050522D1*
X7563986Y8065010D1*
X7691233Y8101397D2*
X7778664D1*
Y8116054D1*
X7771421Y8130710D1*
X7764177Y8137954D1*
X7749521Y8145197D1*
X7727621D1*
X7713133Y8137954D1*
X7698477Y8123297D1*
X7691233Y8101397D1*
Y8086910D1*
X7698477Y8065010D1*
X7713133Y8050522D1*
X7727621Y8043110D1*
X7749521D1*
X7764177Y8050522D1*
X7778664Y8065010D1*
X7905911Y8123297D2*
X7898667Y8137954D1*
X7876767Y8145197D1*
X7854867D1*
X7832967Y8137954D1*
X7825723Y8123297D1*
X7832967Y8108810D1*
X7847623Y8101397D1*
X7884011Y8094154D1*
X7898667Y8086910D1*
X7905911Y8072254D1*
Y8065010D1*
X7898667Y8050522D1*
X7876767Y8043110D1*
X7854867D1*
X7832967Y8050522D1*
X7825723Y8065010D1*
X6204167Y7827697D2*
Y7725610D1*
Y7798554D2*
X6226067Y7820454D1*
X6240723Y7827697D1*
X6262454D1*
X6277111Y7820454D1*
X6284354Y7798554D1*
Y7725610D1*
Y7798554D2*
X6306254Y7820454D1*
X6320911Y7827697D1*
X6342642D1*
X6357298Y7820454D1*
X6364711Y7798554D1*
Y7725610D1*
X6499201Y7827697D2*
Y7725610D1*
Y7805797D2*
X6484713Y7820454D1*
X6470057Y7827697D1*
X6448325D1*
X6433669Y7820454D1*
X6419182Y7805797D1*
X6411769Y7783897D1*
Y7769410D1*
X6419182Y7747510D1*
X6433669Y7733022D1*
X6448325Y7725610D1*
X6470057D1*
X6484713Y7733022D1*
X6499201Y7747510D1*
X6546260Y7827697D2*
Y7725610D1*
Y7783897D2*
X6553672Y7805797D1*
X6568160Y7820454D1*
X6582816Y7827697D1*
X6604716D1*
X6651775Y7878741D2*
Y7725610D1*
X6724719Y7827697D2*
X6651775Y7754754D1*
X6680919Y7783897D2*
X6731962Y7725610D1*
X6927157Y7878741D2*
Y7725610D1*
X7122352Y7802091D2*
X7206582D1*
X7409189Y7842185D2*
Y7849429D1*
X7416433Y7864085D1*
X7423677Y7871329D1*
X7438333Y7878573D1*
X7467477D1*
X7481965Y7871329D1*
X7489208Y7864085D1*
X7496621Y7849429D1*
Y7834941D1*
X7489208Y7820285D1*
X7474721Y7798554D1*
X7401777Y7725610D1*
X7503865D1*
X7594723Y7878573D2*
X7572823Y7871329D1*
X7558167Y7849429D1*
X7550923Y7813041D1*
Y7791141D1*
X7558167Y7754754D1*
X7572823Y7732854D1*
X7594723Y7725610D1*
X7609211D1*
X7631111Y7732854D1*
X7645599Y7754754D1*
X7653011Y7791141D1*
Y7813041D1*
X7645599Y7849429D1*
X7631111Y7871329D1*
X7609211Y7878573D1*
X7594723D1*
X7645599Y7849429D2*
X7558167Y7754754D1*
X7700070Y7849429D2*
X7714726Y7856841D1*
X7736626Y7878573D1*
Y7725610D1*
X7812829D2*
X7885773Y7878573D1*
X7783685D1*
M02*
