G04 DipTrace 3.1.0.1*
G04 Controller.GBL*
%MOMM*%
G04 #@! TF.FileFunction,Copper,L2,Bot*
G04 #@! TF.Part,Single*
G04 #@! TA.AperFunction,ComponentPad*
%ADD13C,2.0*%
G04 #@! TA.AperFunction,Conductor*
%ADD14C,0.33*%
G04 #@! TA.AperFunction,ComponentPad*
%ADD16C,2.5*%
%ADD17C,1.5*%
%ADD18R,1.5X1.5*%
%FSLAX35Y35*%
G04*
G71*
G90*
G75*
G01*
G04 Bottom*
%LPD*%
X4743667Y4283293D2*
D14*
X3902293Y5124667D1*
X2965667D1*
X2838667Y5251667D1*
Y5670667D1*
X2803667Y5705667D1*
X4489667Y4283293D2*
Y4029290D1*
X4743667Y3775290D1*
Y3267293D1*
X4997667D2*
Y3775290D1*
X4870667Y3902290D1*
X4616667D1*
X4489667Y4029290D1*
X4997667Y2759290D2*
Y2632293D1*
X4743667Y2378293D1*
X3600667D1*
X2965667Y1743293D1*
X5886667Y4283293D2*
X5299293Y4870667D1*
X4743667D1*
X4616667Y4997667D1*
Y5670667D1*
X4581667Y5705667D1*
X5759667Y2759290D2*
Y2505293D1*
X5124670D1*
X4870667Y2251290D1*
X3727667D1*
X3473667Y1997290D1*
Y1743293D1*
X5632667Y4283293D2*
Y3902293D1*
X5610003Y3879630D1*
X5505667Y3775293D1*
Y3267293D1*
X5610003Y3879630D2*
X5655327D1*
X5759667Y3775290D1*
Y3267293D1*
X6648667Y4283293D2*
Y4156293D1*
X6508483Y4016110D1*
X6267667Y3775293D1*
Y3267293D1*
X6508483Y4016110D2*
Y3280477D1*
X6521667Y3267293D1*
Y2759290D2*
X6140670Y2378293D1*
X5251670D1*
X4997667Y2124290D1*
X3854667D1*
X3727667Y1997290D1*
Y1743293D1*
X7156667Y2759290D2*
Y2632290D1*
X6775667Y2251290D1*
X5378667D1*
X5124667Y1997290D1*
X4489663D1*
X4235667Y1743293D1*
X7664667Y4283293D2*
Y4029290D1*
X7537667Y3902290D1*
X7156663D1*
X7146727Y3892353D1*
X6902667Y3648293D1*
Y3267293D1*
X7146727Y3892353D2*
Y3277233D1*
X7156667Y3267293D1*
X6902667Y4283293D2*
Y4489667D1*
X6267667Y5124667D1*
Y5670667D1*
X6232667Y5705667D1*
X7918667Y4283293D2*
Y5670667D1*
X7883667Y5705667D1*
X7537667Y1441667D2*
X7601167D1*
X7410667Y1251167D1*
X6775667D1*
X6537543Y1489290D1*
X6521667D1*
D16*
X2203667Y5505667D3*
D13*
X1603667Y5705667D3*
X2803667D3*
X1603667Y6925667D3*
X2803667D3*
X2457667Y8045667D3*
X2965667D3*
X3473667D3*
X3981667D3*
D17*
X1695667Y1743293D3*
X1949667D3*
X2203667D3*
X2457667D3*
X2711667D3*
X2965667D3*
X3219667D3*
X3473667D3*
X3727667D3*
X3981667D3*
X4235667D3*
X4489667D3*
X4743667D3*
X4997667D3*
X5251667D3*
X5505667D3*
X5759667D3*
X6013667D3*
X6267667D3*
X6521667D3*
X1695667Y1489290D3*
X1949667D3*
X2457667D3*
X2203667D3*
X2711667D3*
X2965667D3*
X3219667D3*
X3473667D3*
X3727667D3*
X3981667D3*
X4235667D3*
X4489667D3*
X4743667D3*
X4997667D3*
X5251667D3*
X5505667D3*
X5759667D3*
X6013667D3*
X6267667D3*
X6521667D3*
X1441667Y4537290D3*
Y4283293D3*
Y3965793D3*
Y3457793D3*
X1695667Y3203793D3*
Y2949790D3*
X4743667Y4283293D3*
X4489667D3*
D18*
X4235667D3*
D17*
X2203667Y4537290D3*
Y4283293D3*
Y3965793D3*
Y3457793D3*
X2457667Y3203793D3*
Y2949790D3*
X2965667Y4537290D3*
Y4283293D3*
Y3965793D3*
Y3457793D3*
X3219667Y3203793D3*
Y2949790D3*
X3727667Y4537290D3*
Y4283293D3*
Y3965793D3*
Y3457793D3*
X3981667Y3203793D3*
Y2949790D3*
X4743667Y3267293D3*
Y2759290D3*
X4997667Y3267293D3*
Y2759290D3*
X5886667Y4283293D3*
X5632667D3*
D18*
X5378667D3*
D17*
X5505667Y3267293D3*
X5759667D3*
X5505667Y2759290D3*
X5759667D3*
X6902667Y4283293D3*
X6648667D3*
D18*
X6394667D3*
D17*
X7918667D3*
X7664667D3*
D18*
X7410667D3*
D17*
X6267667Y3267293D3*
X6521667D3*
X6267667Y2759290D3*
X6521667D3*
X6902667Y3267293D3*
X7156667D3*
X6902667Y2759290D3*
X7156667D3*
X7791667Y1441667D3*
X7537667D3*
X7029667Y2203667D3*
Y1695667D3*
X7283667Y1441667D3*
D16*
X3981667Y5505667D3*
D13*
X3381667Y5705667D3*
X4581667D3*
X3381667Y6925667D3*
X4581667D3*
D16*
X5632667Y5505667D3*
D13*
X5032667Y5705667D3*
X6232667D3*
X5032667Y6925667D3*
X6232667D3*
D16*
X7283667Y5505667D3*
D13*
X6683667Y5705667D3*
X7883667D3*
X6683667Y6925667D3*
X7883667D3*
M02*
