M48
METRIC,0000.00
T01C0.9
T02C1.3
T03C1.6
%
T01
X+001696Y+001743
X+001950Y+001743
X+002204Y+001743
X+002458Y+001743
X+002712Y+001743
X+002966Y+001743
X+003220Y+001743
X+003474Y+001743
X+003728Y+001743
X+003982Y+001743
X+004236Y+001743
X+004490Y+001743
X+004744Y+001743
X+004998Y+001743
X+005252Y+001743
X+005506Y+001743
X+005760Y+001743
X+006014Y+001743
X+006268Y+001743
X+006522Y+001743
X+006522Y+001489
X+006268Y+001489
X+006014Y+001489
X+005760Y+001489
X+005506Y+001489
X+005252Y+001489
X+004998Y+001489
X+004744Y+001489
X+004490Y+001489
X+004236Y+001489
X+003982Y+001489
X+003728Y+001489
X+003474Y+001489
X+003220Y+001489
X+002966Y+001489
X+002712Y+001489
X+002458Y+001489
X+002204Y+001489
X+001950Y+001489
X+001696Y+001489
X+001696Y+002950
X+001696Y+003204
X+001442Y+003458
X+001442Y+003966
X+001442Y+004283
X+001442Y+004537
X+002204Y+004537
X+002204Y+004283
X+002204Y+003966
X+002204Y+003458
X+002458Y+003204
X+002458Y+002950
X+002966Y+003458
X+003220Y+003204
X+003220Y+002950
X+003728Y+003458
X+003982Y+003204
X+003982Y+002950
X+004744Y+002759
X+004998Y+002759
X+005506Y+002759
X+005760Y+002759
X+006268Y+002759
X+006522Y+002759
X+006903Y+002759
X+007157Y+002759
X+007157Y+003267
X+006903Y+003267
X+006522Y+003267
X+006268Y+003267
X+005760Y+003267
X+005506Y+003267
X+004998Y+003267
X+004744Y+003267
X+004744Y+004283
X+004490Y+004283
X+004236Y+004283
X+003728Y+004283
X+003728Y+004537
X+003728Y+003966
X+002966Y+003966
X+002966Y+004283
X+002966Y+004537
X+005379Y+004283
X+005633Y+004283
X+005887Y+004283
X+006395Y+004283
X+006649Y+004283
X+006903Y+004283
X+007411Y+004283
X+007665Y+004283
X+007919Y+004283
X+007030Y+002204
X+007030Y+001696
X+007284Y+001442
X+007538Y+001442
X+007792Y+001442
T02
X+001604Y+005706
X+002804Y+005706
X+003382Y+005706
X+004582Y+005706
X+005033Y+005706
X+006233Y+005706
X+006684Y+005706
X+007884Y+005706
X+007884Y+006926
X+006684Y+006926
X+006233Y+006926
X+005033Y+006926
X+004582Y+006926
X+003382Y+006926
X+002804Y+006926
X+002966Y+008046
X+003474Y+008046
X+003982Y+008046
X+002458Y+008046
X+001604Y+006926
T03
X+002204Y+005506
X+003982Y+005506
X+005633Y+005506
X+007284Y+005506
T00
M30
