G04 DipTrace 3.1.0.1*
G04 Controller.GBO*
%MOMM*%
G04 #@! TF.FileFunction,Legend,Bot*
G04 #@! TF.Part,Single*
%ADD15C,0.3*%
%ADD32C,0.23529*%
%ADD35C,0.39216*%
%FSLAX35Y35*%
G04*
G71*
G90*
G75*
G01*
G04 BotSilk*
%LPD*%
X8181793Y3283167D2*
D15*
X8435793D1*
Y2521167D1*
X8181793D1*
Y3283167D1*
X7762540Y1566108D2*
D32*
Y1719071D1*
X7835484Y1617152D1*
X7726153D1*
X7671850Y1580765D2*
X7679094Y1573352D1*
X7671850Y1566108D1*
X7664438Y1573352D1*
X7671850Y1580765D1*
X7588235Y1566108D2*
X7515291Y1719071D1*
X7617379D1*
X7468232Y1719240D2*
Y1566108D1*
X7395289Y1668196D2*
X7468232Y1595252D1*
X7439089Y1624396D2*
X7388045Y1566108D1*
X8564995Y3216332D2*
Y3085101D1*
X8630526Y3150632D2*
X8499295D1*
X8615275Y2912590D2*
X8531045D1*
X8546918Y2735240D2*
Y2582108D1*
Y2662296D2*
X8561406Y2676952D1*
X8576062Y2684196D1*
X8597962D1*
X8612450Y2676952D1*
X8627106Y2662296D1*
X8634350Y2640396D1*
Y2625908D1*
X8627106Y2604008D1*
X8612450Y2589521D1*
X8597962Y2582108D1*
X8576062D1*
X8561406Y2589521D1*
X8546918Y2604008D1*
X8383844Y2350488D2*
D35*
X8590490D1*
X8626709Y2338415D1*
X8639063Y2313988D1*
Y2289842D1*
X8468917Y2386988D2*
Y2301915D1*
X8383844Y2211411D2*
X8639063D1*
X8517490D2*
X8480990Y2174911D1*
X8468917Y2150484D1*
Y2113984D1*
X8480990Y2089838D1*
X8517490Y2077765D1*
X8639063D1*
X8541917Y1999333D2*
Y1853614D1*
X8517490D1*
X8493063Y1865687D1*
X8480990Y1877760D1*
X8468917Y1902187D1*
Y1938687D1*
X8480990Y1962833D1*
X8505417Y1987260D1*
X8541917Y1999333D1*
X8566063D1*
X8602563Y1987260D1*
X8626709Y1962833D1*
X8639063Y1938687D1*
Y1902187D1*
X8626709Y1877760D1*
X8602563Y1853614D1*
X8468917Y1775183D2*
X8639063D1*
X8541917D2*
X8505417Y1762829D1*
X8480990Y1738683D1*
X8468917Y1714256D1*
Y1677756D1*
Y1599324D2*
X8639063D1*
X8517490D2*
X8480990Y1562824D1*
X8468917Y1538398D1*
Y1502178D1*
X8480990Y1477751D1*
X8517490Y1465678D1*
X8639063D1*
X8517490D2*
X8480990Y1429178D1*
X8468917Y1404751D1*
Y1368532D1*
X8480990Y1344105D1*
X8517490Y1331752D1*
X8639063D1*
M02*
