G04 DipTrace 3.1.0.1*
G04 Controllernew.GML*
%MOMM*%
G04 #@! TF.FileFunction,Drawing,Board polygon*
G04 #@! TF.Part,Single*
%FSLAX35Y35*%
G04*
G71*
G90*
G75*
G01*
G04 BoardPoly*
%LPD*%
G36*
X1000000Y8194833D2*
X9132960D1*
Y1000000D1*
X1000000D1*
Y8194833D1*
G37*
G04 BoardPoly Clear*
%LPC*%
G36*
X4968750Y5699000D2*
X6095873D1*
Y5556123D1*
X4968750D1*
Y5699000D1*
G37*
G36*
X1904873D2*
X2524000D1*
Y5556123D1*
X1904873D1*
Y5699000D1*
G37*
G36*
X2381123Y5556123D2*
X2524000D1*
Y4683000D1*
X2381123D1*
Y5556123D1*
G37*
G36*
X3047873D2*
X3190750D1*
Y4683000D1*
X3047873D1*
Y5556123D1*
G37*
G36*
X2524000Y4810000D2*
X3047873D1*
Y4683000D1*
X2524000D1*
Y4810000D1*
G37*
G36*
X3047873Y5699000D2*
X4444873D1*
Y5556123D1*
X3047873D1*
Y5699000D1*
G37*
G36*
X4302000Y5556123D2*
X4444873D1*
Y4683000D1*
X4302000D1*
Y5556123D1*
G37*
G36*
X4968747D2*
X5111623D1*
Y4683000D1*
X4968747D1*
Y5556123D1*
G37*
G36*
X4444873Y4810000D2*
X4968747D1*
Y4683000D1*
X4444873D1*
Y4810000D1*
G37*
G36*
X5953000Y5556123D2*
X6095873D1*
Y4683000D1*
X5953000D1*
Y5556123D1*
G37*
G36*
X6619747D2*
X6762623D1*
Y4683000D1*
X6619747D1*
Y5556123D1*
G37*
G36*
X6095873Y4810000D2*
X6619747D1*
Y4683000D1*
X6095873D1*
Y4810000D1*
G37*
G36*
X7588123Y5556123D2*
X7730997D1*
Y4683000D1*
X7588123D1*
Y5556123D1*
G37*
G36*
X8254873Y6048250D2*
X8397747D1*
Y4683000D1*
X8254873D1*
Y6048250D1*
G37*
G36*
X7730997Y4810000D2*
X8254873D1*
Y4683000D1*
X7730997D1*
Y4810000D1*
G37*
G36*
X6619750Y5699000D2*
X7731000D1*
Y5556123D1*
X6619750D1*
Y5699000D1*
G37*
M02*
