M48
METRIC,0000.00
T01C0.9
T02C1.3
T03C1.6
T04C3.5
%
T01
X+002245Y+001981
X+002499Y+001981
X+002753Y+001981
X+003007Y+001981
X+003261Y+001981
X+003515Y+001981
X+003769Y+001981
X+004023Y+001981
X+004277Y+001981
X+004531Y+001981
X+004785Y+001981
X+005039Y+001981
X+005293Y+001981
X+005547Y+001981
X+005801Y+001981
X+006055Y+001981
X+006309Y+001981
X+006563Y+001981
X+006817Y+001981
X+007071Y+001981
X+007071Y+001727
X+006817Y+001727
X+006563Y+001727
X+006309Y+001727
X+006055Y+001727
X+005801Y+001727
X+005547Y+001727
X+005293Y+001727
X+005039Y+001727
X+004785Y+001727
X+004531Y+001727
X+004277Y+001727
X+004023Y+001727
X+003769Y+001727
X+003515Y+001727
X+003261Y+001727
X+003007Y+001727
X+002753Y+001727
X+002499Y+001727
X+002245Y+001727
X+001991Y+003172
X+001991Y+003426
X+002753Y+003426
X+002753Y+003172
X+003515Y+003172
X+003515Y+003426
X+004277Y+003426
X+004277Y+003172
X+004785Y+003871
X+005039Y+003871
X+005293Y+003871
X+005293Y+003331
X+005547Y+003331
X+006055Y+003331
X+006309Y+003331
X+006817Y+003331
X+007071Y+003331
X+007452Y+003331
X+007706Y+003331
X+007452Y+003871
X+007198Y+003871
X+006944Y+003871
X+006436Y+003871
X+006182Y+003871
X+005928Y+003871
X+006207Y+004493
X+006461Y+004493
X+007858Y+004493
X+008112Y+004493
X+008214Y+003871
X+008468Y+003871
X+007960Y+003871
X+008309Y+003156
X+008309Y+002902
X+008309Y+002648
X+007706Y+002696
X+007452Y+002696
X+007071Y+002696
X+006817Y+002696
X+006309Y+002696
X+006055Y+002696
X+005547Y+002696
X+005293Y+002696
X+004810Y+004493
X+004556Y+004493
X+002889Y+004492
X+002635Y+004492
X+007610Y+002077
X+007610Y+001442
T02
X+002184Y+005388
X+001467Y+005950
X+001467Y+006458
X+003384Y+005388
X+004089Y+005388
X+005289Y+005388
X+005740Y+005388
X+006940Y+005388
X+007391Y+005388
X+008591Y+005388
X+005705Y+007728
X+005197Y+007728
X+004689Y+007728
X+004181Y+007728
T03
X+002784Y+005188
X+002184Y+006608
X+003384Y+006608
X+004089Y+006608
X+005289Y+006608
X+005740Y+006608
X+006940Y+006608
X+007391Y+006608
X+008591Y+006608
X+007991Y+005188
X+006340Y+005188
X+004689Y+005188
T04
X+001483Y+001981
X+008604Y+007699
T00
M30
