G04 DipTrace 3.1.0.1*
G04 Controller.GBS*
%MOMM*%
G04 #@! TF.FileFunction,Soldermask,Bot*
G04 #@! TF.Part,Single*
%ADD19C,3.5*%
%ADD24R,1.7X1.7*%
%ADD26C,1.7*%
%ADD27C,2.2*%
%ADD29C,2.7*%
%FSLAX35Y35*%
G04*
G71*
G90*
G75*
G01*
G04 BotMask*
%LPD*%
D19*
X1482543Y1981417D3*
X8604123Y7699250D3*
D29*
X2784293Y5188167D3*
D27*
X2184293Y5388167D3*
X3384293D3*
D29*
X2184293Y6608167D3*
X3384293D3*
D27*
X4181293Y7728167D3*
X4689293D3*
X5197293D3*
X5705293D3*
D26*
X2244543Y1981420D3*
X2498543D3*
X2752543D3*
X3006543D3*
X3260543D3*
X3514543D3*
X3768543D3*
X4022543D3*
X4276543D3*
X4530543D3*
X4784543D3*
X5038543D3*
X5292543D3*
X5546543D3*
X5800543D3*
X6054543D3*
X6308543D3*
X6562543D3*
X6816543D3*
X7070543D3*
X2244543Y1727417D3*
X2498543D3*
X3006543D3*
X2752543D3*
X3260543D3*
X3514543D3*
X3768543D3*
X4022543D3*
X4276543D3*
X4530543D3*
X4784543D3*
X5038543D3*
X5292543D3*
X5546543D3*
X5800543D3*
X6054543D3*
X6308543D3*
X6562543D3*
X6816543D3*
X7070543D3*
X1990543Y3426040D3*
Y3172047D3*
X2635123Y4492487D3*
D24*
X2889123D3*
D26*
X4556000Y4492500D3*
D24*
X4810000D3*
D26*
X5292543Y3870557D3*
X5038543D3*
D24*
X4784543D3*
D26*
X2752543Y3426040D3*
Y3172047D3*
X8308793Y3156167D3*
Y2902167D3*
X6207000Y4492500D3*
D24*
X6461000D3*
D26*
X3514543Y3426040D3*
Y3172047D3*
X8308793Y2648167D3*
X7610293Y1441667D3*
X7858000Y4492500D3*
D24*
X8112000D3*
D26*
X4276543Y3426040D3*
D24*
Y3172047D3*
D26*
X7610293Y2076667D3*
X5292543Y3330793D3*
Y2695787D3*
X5546543Y3330793D3*
Y2695787D3*
X6435543Y3870557D3*
X6181543D3*
D24*
X5927543D3*
D26*
X6054543Y3330793D3*
X6308543D3*
X6054543Y2695787D3*
X6308543D3*
X7451543Y3870557D3*
X7197543D3*
D24*
X6943543D3*
D26*
X8467543D3*
X8213543D3*
D24*
X7959543D3*
D26*
X6816543Y3330793D3*
X7070543D3*
X6816543Y2695787D3*
X7070543D3*
X7451543Y3330793D3*
X7705543D3*
X7451543Y2695787D3*
X7705543D3*
D27*
X1466667Y6458167D3*
Y5950167D3*
D29*
X4689293Y5188167D3*
D27*
X4089293Y5388167D3*
X5289293D3*
D29*
X4089293Y6608167D3*
X5289293D3*
X6340293Y5188167D3*
D27*
X5740293Y5388167D3*
X6940293D3*
D29*
X5740293Y6608167D3*
X6940293D3*
X7991293Y5188167D3*
D27*
X7391293Y5388167D3*
X8591293D3*
D29*
X7391293Y6608167D3*
X8591293D3*
M02*
