G04 DipTrace 3.1.0.1*
G04 Controller.GTL*
%MOMM*%
G04 #@! TF.FileFunction,Copper,L1,Top*
G04 #@! TF.Part,Single*
G04 #@! TA.AperFunction,ComponentPad*
%ADD13C,2.0*%
G04 #@! TA.AperFunction,Conductor*
%ADD14C,0.33*%
G04 #@! TA.AperFunction,ComponentPad*
%ADD16C,2.5*%
%ADD17C,1.5*%
%ADD18R,1.5X1.5*%
%FSLAX35Y35*%
G04*
G71*
G90*
G75*
G01*
G04 Top*
%LPD*%
X2184293Y6608167D2*
D13*
X2539043D1*
X3133543Y6013667D1*
X4689293D1*
X6340293D1*
X7864293D1*
X7991293Y5886667D1*
Y5188167D1*
X6340293Y6013667D2*
Y5188167D1*
X4689293Y6013667D2*
Y5188167D1*
X2184293Y6608167D2*
X3304293Y7728167D1*
X4181293D1*
X2184293Y5388167D2*
D14*
Y5334290D1*
X2022293Y5172290D1*
Y4667220D1*
Y3457790D1*
X1990543Y3426040D1*
X2022293Y4667220D2*
X2158273D1*
X2333007Y4492487D1*
X2635123D1*
X7391293Y5388167D2*
Y4492500D1*
Y4438853D1*
X7111233Y4158793D1*
X4666740D1*
X4285780Y3777833D1*
Y3435277D1*
X4276543Y3426040D1*
X7858000Y4492500D2*
X7391293D1*
X5740293Y5388167D2*
Y4858043D1*
X5624147Y4741897D1*
X5199777Y4317527D1*
X4120277D1*
X3514543Y3711793D1*
Y3426040D1*
X5624147Y4741897D2*
X5873543Y4492500D1*
X6207000D1*
X4089293Y5388167D2*
Y5089313D1*
X3524230Y4524250D1*
X2761940Y3761960D1*
Y3435437D1*
X2752543Y3426040D1*
X4556000Y4492500D2*
Y4508007D1*
X3524230D1*
Y4524250D1*
X1990543Y3172047D2*
Y2234373D1*
Y1585860D1*
X2086933Y1489470D1*
X7007667D1*
X7070543Y1552347D1*
Y1727417D1*
X2752543Y3172047D2*
Y2752543D1*
X2524000Y2524000D1*
X2280170D1*
X1990543Y2234373D1*
X3514543Y3172047D2*
Y2752543D1*
X3286000Y2524000D1*
X2524000D1*
X3286000D2*
X4048000D1*
X4302000Y2778000D1*
Y3146590D1*
X4276543Y3172047D1*
X4784543Y3870557D2*
Y2521163D1*
X4482923Y2219543D1*
X5049713D1*
X5546543D1*
X6022787Y2695787D1*
X6047720D1*
X6054543D1*
X6943543Y3870557D2*
X6562543Y3489557D1*
Y2330667D1*
X6451420Y2219543D1*
X5546543D1*
X6816543Y2695787D2*
Y2584667D1*
X6562543Y2330667D1*
X7451543Y2695787D2*
X7152757Y2397000D1*
X6975300Y2219543D1*
X6451420D1*
X6047720Y2695787D2*
Y2813740D1*
X5832293Y3029167D1*
Y3759430D1*
X5927543Y3854680D1*
Y3870557D1*
X5292543Y2695787D2*
Y2462373D1*
X5049713Y2219543D1*
X4482923D2*
X2309057D1*
X2244543Y2155030D1*
Y1981420D1*
X7959543Y3870557D2*
Y2902167D1*
Y2625543D1*
X7731000Y2397000D1*
X7152757D1*
X8308793Y2902167D2*
X7959543D1*
D16*
X2784293Y5188167D3*
D13*
X2184293Y5388167D3*
X3384293D3*
D16*
X2184293Y6608167D3*
X3384293D3*
D13*
X4181293Y7728167D3*
X4689293D3*
X5197293D3*
X5705293D3*
D17*
X2244543Y1981420D3*
X2498543D3*
X2752543D3*
X3006543D3*
X3260543D3*
X3514543D3*
X3768543D3*
X4022543D3*
X4276543D3*
X4530543D3*
X4784543D3*
X5038543D3*
X5292543D3*
X5546543D3*
X5800543D3*
X6054543D3*
X6308543D3*
X6562543D3*
X6816543D3*
X7070543D3*
X2244543Y1727417D3*
X2498543D3*
X3006543D3*
X2752543D3*
X3260543D3*
X3514543D3*
X3768543D3*
X4022543D3*
X4276543D3*
X4530543D3*
X4784543D3*
X5038543D3*
X5292543D3*
X5546543D3*
X5800543D3*
X6054543D3*
X6308543D3*
X6562543D3*
X6816543D3*
X7070543D3*
X1990543Y3426040D3*
Y3172047D3*
X2635123Y4492487D3*
D18*
X2889123D3*
D17*
X4556000Y4492500D3*
D18*
X4810000D3*
D17*
X5292543Y3870557D3*
X5038543D3*
D18*
X4784543D3*
D17*
X2752543Y3426040D3*
Y3172047D3*
X8308793Y3156167D3*
Y2902167D3*
X6207000Y4492500D3*
D18*
X6461000D3*
D17*
X3514543Y3426040D3*
Y3172047D3*
X8308793Y2648167D3*
X7610293Y1441667D3*
X7858000Y4492500D3*
D18*
X8112000D3*
D17*
X4276543Y3426040D3*
D18*
Y3172047D3*
D17*
X7610293Y2076667D3*
X5292543Y3330793D3*
Y2695787D3*
X5546543Y3330793D3*
Y2695787D3*
X6435543Y3870557D3*
X6181543D3*
D18*
X5927543D3*
D17*
X6054543Y3330793D3*
X6308543D3*
X6054543Y2695787D3*
X6308543D3*
X7451543Y3870557D3*
X7197543D3*
D18*
X6943543D3*
D17*
X8467543D3*
X8213543D3*
D18*
X7959543D3*
D17*
X6816543Y3330793D3*
X7070543D3*
X6816543Y2695787D3*
X7070543D3*
X7451543Y3330793D3*
X7705543D3*
X7451543Y2695787D3*
X7705543D3*
D13*
X1466667Y6458167D3*
Y5950167D3*
D16*
X4689293Y5188167D3*
D13*
X4089293Y5388167D3*
X5289293D3*
D16*
X4089293Y6608167D3*
X5289293D3*
X6340293Y5188167D3*
D13*
X5740293Y5388167D3*
X6940293D3*
D16*
X5740293Y6608167D3*
X6940293D3*
X7991293Y5188167D3*
D13*
X7391293Y5388167D3*
X8591293D3*
D16*
X7391293Y6608167D3*
X8591293D3*
M02*
