G04 DipTrace 3.1.0.1*
G04 Controller.GTO*
%MOMM*%
G04 #@! TF.FileFunction,Legend,Top*
G04 #@! TF.Part,Single*
%ADD10C,0.25*%
%ADD15C,0.3*%
%ADD31C,0.19608*%
%ADD32C,0.23529*%
%ADD33C,0.47059*%
%ADD34C,0.31373*%
%FSLAX35Y35*%
G04*
G71*
G90*
G75*
G01*
G04 TopSilk*
%LPD*%
X2009293Y5048167D2*
D10*
Y6958167D1*
X3559293D1*
Y5048167D1*
X2009293D1*
X3914293D2*
Y6958167D1*
X5464293D1*
Y5048167D1*
X3914293D1*
X5565293D2*
Y6958167D1*
X7115293D1*
Y5048167D1*
X5565293D1*
X7216293D2*
Y6958167D1*
X8766293D1*
Y5048167D1*
X7216293D1*
X3927293Y7982167D2*
D15*
X5959293D1*
Y7474167D1*
X3927293D1*
Y7982167D1*
X2101667Y2108420D2*
X7229293D1*
Y1584543D1*
X2101667D1*
Y2108420D1*
X4657543Y4013430D2*
X5419543D1*
Y3759430D1*
X4657543D1*
Y4013430D1*
X5800543D2*
X6562543D1*
Y3759430D1*
X5800543D1*
Y4013430D1*
X6816543D2*
X7578543D1*
Y3759430D1*
X6816543D1*
Y4013430D1*
X7832543D2*
X8594543D1*
Y3759430D1*
X7832543D1*
Y4013430D1*
X1863543Y3568917D2*
X2117543D1*
Y3060917D1*
X1863543D1*
Y3568917D1*
X2625543D2*
X2879543D1*
Y3060917D1*
X2625543D1*
Y3568917D1*
X3387543D2*
X3641543D1*
Y3060917D1*
X3387543D1*
Y3568917D1*
X4149543D2*
X4403543D1*
Y3060917D1*
X4149543D1*
Y3568917D1*
X1180920Y6743917D2*
X1752420D1*
Y5632667D1*
X1180920D1*
Y6743917D1*
X4435293Y7966293D2*
Y7474167D1*
X2682863Y4877482D2*
D31*
Y5005092D1*
X2634290Y4877482D1*
X2585717Y5005092D1*
Y4877482D1*
X2819365D2*
X2770652Y5005092D1*
X2722079Y4877482D1*
X2740329Y4920019D2*
X2801115D1*
X2858581Y5005092D2*
Y4877482D1*
X2982870Y5005092D2*
Y4877482D1*
X2897797Y5005092D1*
Y4877482D1*
X4696990Y4986842D2*
X4684917Y4999055D1*
X4666667Y5005092D1*
X4642381D1*
X4624131Y4999055D1*
X4611917Y4986842D1*
Y4974769D1*
X4618094Y4962555D1*
X4624131Y4956519D1*
X4636204Y4950482D1*
X4672704Y4938269D1*
X4684917Y4932232D1*
X4690954Y4926055D1*
X4696990Y4913982D1*
Y4895732D1*
X4684917Y4883659D1*
X4666667Y4877482D1*
X4642381D1*
X4624131Y4883659D1*
X4611917Y4895732D1*
X4736206Y4980665D2*
X4748419Y4986842D1*
X4766669Y5004951D1*
Y4877482D1*
X6320685Y4986842D2*
X6308612Y4999055D1*
X6290362Y5005092D1*
X6266076D1*
X6247826Y4999055D1*
X6235612Y4986842D1*
Y4974769D1*
X6241789Y4962555D1*
X6247826Y4956519D1*
X6259899Y4950482D1*
X6296399Y4938269D1*
X6308612Y4932232D1*
X6314649Y4926055D1*
X6320685Y4913982D1*
Y4895732D1*
X6308612Y4883659D1*
X6290362Y4877482D1*
X6266076D1*
X6247826Y4883659D1*
X6235612Y4895732D1*
X6366078Y4974628D2*
Y4980665D1*
X6372115Y4992878D1*
X6378151Y4998915D1*
X6390365Y5004951D1*
X6414651D1*
X6426724Y4998915D1*
X6432761Y4992878D1*
X6438938Y4980665D1*
Y4968592D1*
X6432761Y4956378D1*
X6420688Y4938269D1*
X6359901Y4877482D1*
X6444974D1*
X7971685Y4986842D2*
X7959612Y4999055D1*
X7941362Y5005092D1*
X7917076D1*
X7898826Y4999055D1*
X7886612Y4986842D1*
Y4974769D1*
X7892789Y4962555D1*
X7898826Y4956519D1*
X7910899Y4950482D1*
X7947399Y4938269D1*
X7959612Y4932232D1*
X7965649Y4926055D1*
X7971685Y4913982D1*
Y4895732D1*
X7959612Y4883659D1*
X7941362Y4877482D1*
X7917076D1*
X7898826Y4883659D1*
X7886612Y4895732D1*
X8023115Y5004951D2*
X8089797D1*
X8053438Y4956378D1*
X8071688D1*
X8083761Y4950342D1*
X8089797Y4944305D1*
X8095974Y4926055D1*
Y4913982D1*
X8089797Y4895732D1*
X8077724Y4883519D1*
X8059474Y4877482D1*
X8041224D1*
X8023115Y4883519D1*
X8017078Y4889695D1*
X8010901Y4901769D1*
X2196918Y3370237D2*
D32*
Y3217105D1*
X2243977Y3319193D2*
Y3217105D1*
Y3290049D2*
X2265877Y3311949D1*
X2280533Y3319193D1*
X2302265D1*
X2316921Y3311949D1*
X2324165Y3290049D1*
Y3217105D1*
Y3290049D2*
X2346065Y3311949D1*
X2360721Y3319193D1*
X2382452D1*
X2397108Y3311949D1*
X2404521Y3290049D1*
Y3217105D1*
X2958918Y3354360D2*
Y3201228D1*
X3005977Y3325048D2*
X3020633Y3332460D1*
X3042533Y3354191D1*
Y3201228D1*
X3720918Y3354360D2*
Y3201228D1*
X3775389Y3317804D2*
Y3325048D1*
X3782633Y3339704D1*
X3789877Y3346948D1*
X3804533Y3354191D1*
X3833677D1*
X3848165Y3346948D1*
X3855408Y3339704D1*
X3862821Y3325048D1*
Y3310560D1*
X3855408Y3295904D1*
X3840921Y3274172D1*
X3767977Y3201228D1*
X3870065D1*
X4478808Y3370240D2*
Y3217108D1*
X4540523Y3370071D2*
X4620542D1*
X4576911Y3311784D1*
X4598811D1*
X4613298Y3304540D1*
X4620542Y3297296D1*
X4627955Y3275396D1*
Y3260908D1*
X4620542Y3239008D1*
X4606055Y3224352D1*
X4584155Y3217108D1*
X4562255D1*
X4540523Y3224352D1*
X4533279Y3231765D1*
X4525867Y3246252D1*
X1247291Y7730034D2*
D33*
Y7744522D1*
X1261778Y7773834D1*
X1276266Y7788322D1*
X1305578Y7802810D1*
X1363866D1*
X1392841Y7788322D1*
X1407329Y7773834D1*
X1422154Y7744522D1*
Y7715546D1*
X1407329Y7686234D1*
X1378354Y7642771D1*
X1232466Y7496883D1*
X1436641D1*
X1545584Y7730034D2*
Y7744522D1*
X1560071Y7773834D1*
X1574559Y7788322D1*
X1603871Y7802810D1*
X1662159D1*
X1691134Y7788322D1*
X1705622Y7773834D1*
X1720447Y7744522D1*
Y7715546D1*
X1705622Y7686234D1*
X1676647Y7642771D1*
X1530759Y7496883D1*
X1734934D1*
X1916652Y7802810D2*
X1872852Y7788322D1*
X1843540Y7744522D1*
X1829052Y7671746D1*
Y7627946D1*
X1843540Y7555171D1*
X1872852Y7511371D1*
X1916652Y7496883D1*
X1945628D1*
X1989428Y7511371D1*
X2018403Y7555171D1*
X2033228Y7627946D1*
Y7671746D1*
X2018403Y7744522D1*
X1989428Y7788322D1*
X1945628Y7802810D1*
X1916652D1*
X2018403Y7744522D2*
X1843540Y7555171D1*
X2127345Y7701059D2*
X2214945Y7496883D1*
X2302208Y7701059D1*
X2347253Y1401618D2*
D32*
X2274478D1*
X2267234Y1336087D1*
X2274478Y1343330D1*
X2296378Y1350743D1*
X2318109D1*
X2340009Y1343330D1*
X2354665Y1328843D1*
X2361909Y1306943D1*
Y1292455D1*
X2354665Y1270555D1*
X2340009Y1255899D1*
X2318109Y1248655D1*
X2296378D1*
X2274478Y1255899D1*
X2267234Y1263311D1*
X2259821Y1277799D1*
X2408968Y1350743D2*
X2452768Y1248655D1*
X2496399Y1350743D1*
X4933445Y3703630D2*
Y3579642D1*
X4940689Y3557911D1*
X4955345Y3550498D1*
X4969832D1*
X4911545Y3652586D2*
X4962589D1*
X5016891D2*
Y3550498D1*
Y3623442D2*
X5038791Y3645342D1*
X5053447Y3652586D1*
X5075179D1*
X5089835Y3645342D1*
X5097079Y3623442D1*
Y3550498D1*
Y3623442D2*
X5118979Y3645342D1*
X5133635Y3652586D1*
X5155367D1*
X5170023Y3645342D1*
X5177435Y3623442D1*
Y3550498D1*
X6155818Y3671880D2*
Y3547892D1*
X6163062Y3526161D1*
X6177718Y3518748D1*
X6192206D1*
X6133918Y3620836D2*
X6184962D1*
X6239265Y3642568D2*
X6253921Y3649980D1*
X6275821Y3671711D1*
Y3518748D1*
X7140068Y3687753D2*
Y3563766D1*
X7147312Y3542034D1*
X7161968Y3534622D1*
X7176456D1*
X7118168Y3636709D2*
X7169212D1*
X7230927Y3651197D2*
Y3658441D1*
X7238171Y3673097D1*
X7245415Y3680341D1*
X7260071Y3687585D1*
X7289215D1*
X7303702Y3680341D1*
X7310946Y3673097D1*
X7318358Y3658441D1*
Y3643953D1*
X7310946Y3629297D1*
X7296458Y3607566D1*
X7223515Y3534622D1*
X7325602D1*
X8203695Y3687753D2*
Y3563766D1*
X8210939Y3542034D1*
X8225595Y3534622D1*
X8240082D1*
X8181795Y3636709D2*
X8232839D1*
X8301797Y3687585D2*
X8381817D1*
X8338185Y3629297D1*
X8360085D1*
X8374573Y3622053D1*
X8381817Y3614809D1*
X8389229Y3592909D1*
Y3578422D1*
X8381817Y3556522D1*
X8367329Y3541866D1*
X8345429Y3534622D1*
X8323529D1*
X8301797Y3541866D1*
X8294554Y3549278D1*
X8287141Y3563766D1*
X5260795Y3071054D2*
X5275451Y3078467D1*
X5297351Y3100198D1*
Y2947235D1*
X5388210Y3100198D2*
X5366310Y3092954D1*
X5351654Y3071054D1*
X5344410Y3034667D1*
Y3012767D1*
X5351654Y2976379D1*
X5366310Y2954479D1*
X5388210Y2947235D1*
X5402697D1*
X5424597Y2954479D1*
X5439085Y2976379D1*
X5446497Y3012767D1*
Y3034667D1*
X5439085Y3071054D1*
X5424597Y3092954D1*
X5402697Y3100198D1*
X5388210D1*
X5439085Y3071054D2*
X5351654Y2976379D1*
X5493556Y3100367D2*
Y2947235D1*
X5566500Y3049323D2*
X5493556Y2976379D1*
X5522700Y3005523D2*
X5573744Y2947235D1*
X6038668Y3071054D2*
X6053324Y3078467D1*
X6075224Y3100198D1*
Y2947235D1*
X6166083Y3100198D2*
X6144183Y3092954D1*
X6129527Y3071054D1*
X6122283Y3034667D1*
Y3012767D1*
X6129527Y2976379D1*
X6144183Y2954479D1*
X6166083Y2947235D1*
X6180571D1*
X6202471Y2954479D1*
X6216958Y2976379D1*
X6224371Y3012767D1*
Y3034667D1*
X6216958Y3071054D1*
X6202471Y3092954D1*
X6180571Y3100198D1*
X6166083D1*
X6216958Y3071054D2*
X6129527Y2976379D1*
X6271430Y3100367D2*
Y2947235D1*
X6344373Y3049323D2*
X6271430Y2976379D1*
X6300573Y3005523D2*
X6351617Y2947235D1*
X6784795Y3071054D2*
X6799451Y3078467D1*
X6821351Y3100198D1*
Y2947235D1*
X6912210Y3100198D2*
X6890310Y3092954D1*
X6875654Y3071054D1*
X6868410Y3034667D1*
Y3012767D1*
X6875654Y2976379D1*
X6890310Y2954479D1*
X6912210Y2947235D1*
X6926697D1*
X6948597Y2954479D1*
X6963085Y2976379D1*
X6970497Y3012767D1*
Y3034667D1*
X6963085Y3071054D1*
X6948597Y3092954D1*
X6926697Y3100198D1*
X6912210D1*
X6963085Y3071054D2*
X6875654Y2976379D1*
X7017556Y3100367D2*
Y2947235D1*
X7090500Y3049323D2*
X7017556Y2976379D1*
X7046700Y3005523D2*
X7097744Y2947235D1*
X7419795Y3071054D2*
X7434451Y3078467D1*
X7456351Y3100198D1*
Y2947235D1*
X7547210Y3100198D2*
X7525310Y3092954D1*
X7510654Y3071054D1*
X7503410Y3034667D1*
Y3012767D1*
X7510654Y2976379D1*
X7525310Y2954479D1*
X7547210Y2947235D1*
X7561697D1*
X7583597Y2954479D1*
X7598085Y2976379D1*
X7605497Y3012767D1*
Y3034667D1*
X7598085Y3071054D1*
X7583597Y3092954D1*
X7561697Y3100198D1*
X7547210D1*
X7598085Y3071054D2*
X7510654Y2976379D1*
X7652556Y3100367D2*
Y2947235D1*
X7725500Y3049323D2*
X7652556Y2976379D1*
X7681700Y3005523D2*
X7732744Y2947235D1*
X1231670Y2608248D2*
X1384802D1*
Y2673948D1*
X1377389Y2695848D1*
X1370146Y2703092D1*
X1355658Y2710336D1*
X1333758D1*
X1319102Y2703092D1*
X1311858Y2695848D1*
X1304614Y2673948D1*
X1297202Y2695848D1*
X1289958Y2703092D1*
X1275470Y2710336D1*
X1260814D1*
X1246326Y2703092D1*
X1238914Y2695848D1*
X1231670Y2673948D1*
Y2608248D1*
X1304614D2*
Y2673948D1*
X1282714Y2793782D2*
X1289958Y2779295D1*
X1304614Y2764639D1*
X1326514Y2757395D1*
X1341002D1*
X1362902Y2764638D1*
X1377389Y2779295D1*
X1384802Y2793782D1*
Y2815682D1*
X1377389Y2830338D1*
X1362902Y2844826D1*
X1341002Y2852238D1*
X1326514D1*
X1304614Y2844826D1*
X1289958Y2830339D1*
X1282714Y2815682D1*
Y2793782D1*
X1231670Y2899297D2*
X1384802D1*
X1231670Y2968256D2*
X1355658D1*
X1377389Y2975500D1*
X1384802Y2990156D1*
Y3004644D1*
X1282714Y2946356D2*
Y2997400D1*
X1231670Y3051703D2*
X1384802D1*
X1311858D2*
X1289958Y3073603D1*
X1282714Y3088259D1*
Y3110159D1*
X1289958Y3124646D1*
X1311858Y3131890D1*
X1384802D1*
X1282714Y3266381D2*
X1384802D1*
X1304614D2*
X1289958Y3251893D1*
X1282714Y3237237D1*
Y3215505D1*
X1289958Y3200849D1*
X1304614Y3186361D1*
X1326514Y3178949D1*
X1341002D1*
X1362902Y3186361D1*
X1377389Y3200849D1*
X1384802Y3215505D1*
Y3237237D1*
X1377389Y3251893D1*
X1362902Y3266381D1*
X1282714Y3313439D2*
X1384802D1*
X1326514D2*
X1304614Y3320852D1*
X1289958Y3335339D1*
X1282714Y3349996D1*
Y3371896D1*
X1326514Y3567090D2*
Y3654522D1*
X1311858D1*
X1297202Y3647278D1*
X1289958Y3640034D1*
X1282714Y3625378D1*
Y3603478D1*
X1289958Y3588990D1*
X1304614Y3574334D1*
X1326514Y3567090D1*
X1341002D1*
X1362902Y3574334D1*
X1377389Y3588990D1*
X1384802Y3603478D1*
Y3625378D1*
X1377389Y3640034D1*
X1362902Y3654522D1*
X1282714Y3701581D2*
X1384802D1*
X1311858D2*
X1289958Y3723481D1*
X1282714Y3738137D1*
Y3759868D1*
X1289958Y3774524D1*
X1311858Y3781768D1*
X1384802D1*
X1231670Y3850727D2*
X1355658D1*
X1377389Y3857971D1*
X1384802Y3872627D1*
Y3887115D1*
X1282714Y3828827D2*
Y3879871D1*
X1326514Y3934174D2*
Y4021605D1*
X1311858D1*
X1297202Y4014361D1*
X1289958Y4007117D1*
X1282714Y3992461D1*
Y3970561D1*
X1289958Y3956074D1*
X1304614Y3941417D1*
X1326514Y3934174D1*
X1341002D1*
X1362902Y3941417D1*
X1377389Y3956074D1*
X1384802Y3970561D1*
Y3992461D1*
X1377389Y4007117D1*
X1362902Y4021605D1*
X1282714Y4068664D2*
X1384802D1*
X1326514D2*
X1304614Y4076076D1*
X1289958Y4090564D1*
X1282714Y4105220D1*
Y4127120D1*
Y4174179D2*
X1435845D1*
X1304614D2*
X1290126Y4188835D1*
X1282714Y4203323D1*
Y4225223D1*
X1290126Y4239879D1*
X1304614Y4254367D1*
X1326514Y4261779D1*
X1341170D1*
X1362902Y4254367D1*
X1377558Y4239879D1*
X1384802Y4225223D1*
Y4203323D1*
X1377558Y4188835D1*
X1362902Y4174179D1*
X1282714Y4308838D2*
X1384802D1*
X1326514D2*
X1304614Y4316250D1*
X1289958Y4330738D1*
X1282714Y4345394D1*
Y4367294D1*
X1231670Y4414353D2*
X1238914Y4421597D1*
X1231670Y4429009D1*
X1224258Y4421597D1*
X1231670Y4414353D1*
X1282714Y4421597D2*
X1384802D1*
X1304614Y4556255D2*
X1289958Y4549012D1*
X1282714Y4527112D1*
Y4505212D1*
X1289958Y4483312D1*
X1304614Y4476068D1*
X1319102Y4483312D1*
X1326514Y4497968D1*
X1333758Y4534355D1*
X1341002Y4549012D1*
X1355658Y4556255D1*
X1362902D1*
X1377389Y4549012D1*
X1384802Y4527112D1*
Y4505212D1*
X1377389Y4483312D1*
X1362902Y4476068D1*
X1326514Y4603314D2*
Y4690746D1*
X1311858D1*
X1297202Y4683502D1*
X1289958Y4676258D1*
X1282714Y4661602D1*
Y4639702D1*
X1289958Y4625214D1*
X1304614Y4610558D1*
X1326514Y4603314D1*
X1341002D1*
X1362902Y4610558D1*
X1377389Y4625214D1*
X1384802Y4639702D1*
Y4661602D1*
X1377389Y4676258D1*
X1362902Y4690746D1*
X1304614Y4817992D2*
X1289958Y4810748D1*
X1282714Y4788848D1*
Y4766948D1*
X1289958Y4745048D1*
X1304614Y4737805D1*
X1319102Y4745048D1*
X1326514Y4759705D1*
X1333758Y4796092D1*
X1341002Y4810748D1*
X1355658Y4817992D1*
X1362902D1*
X1377389Y4810748D1*
X1384802Y4788848D1*
Y4766948D1*
X1377389Y4745048D1*
X1362902Y4737805D1*
X1581924Y2610665D2*
X1684012D1*
X1611068D2*
X1589168Y2632565D1*
X1581924Y2647221D1*
Y2668953D1*
X1589168Y2683609D1*
X1611068Y2690853D1*
X1684012D1*
X1611068D2*
X1589168Y2712753D1*
X1581924Y2727409D1*
Y2749140D1*
X1589168Y2763796D1*
X1611068Y2771209D1*
X1684012D1*
X1581924Y2905699D2*
X1684012D1*
X1603824D2*
X1589168Y2891211D1*
X1581924Y2876555D1*
Y2854824D1*
X1589168Y2840167D1*
X1603824Y2825680D1*
X1625724Y2818267D1*
X1640212D1*
X1662112Y2825680D1*
X1676599Y2840167D1*
X1684012Y2854824D1*
Y2876555D1*
X1676599Y2891211D1*
X1662112Y2905699D1*
X1581924Y2952758D2*
X1684012D1*
X1625724D2*
X1603824Y2960170D1*
X1589168Y2974658D1*
X1581924Y2989314D1*
Y3011214D1*
X1530880Y3058273D2*
X1684012D1*
X1581924Y3131217D2*
X1654868Y3058273D1*
X1625724Y3087417D2*
X1684012Y3138460D1*
X1530880Y3333655D2*
X1684012D1*
X1530880Y3380714D2*
X1684012Y3439001D1*
X1530880Y3497289D1*
X1607530Y3692484D2*
Y3776715D1*
X1567436Y3979321D2*
X1560192D1*
X1545536Y3986565D1*
X1538292Y3993809D1*
X1531049Y4008465D1*
Y4037609D1*
X1538292Y4052097D1*
X1545536Y4059341D1*
X1560192Y4066753D1*
X1574680D1*
X1589336Y4059341D1*
X1611068Y4044853D1*
X1684012Y3971909D1*
Y4073997D1*
X1531049Y4164856D2*
X1538292Y4142956D1*
X1560192Y4128299D1*
X1596580Y4121056D1*
X1618480D1*
X1654868Y4128299D1*
X1676768Y4142956D1*
X1684012Y4164856D1*
Y4179343D1*
X1676768Y4201243D1*
X1654868Y4215731D1*
X1618480Y4223143D1*
X1596580D1*
X1560192Y4215731D1*
X1538292Y4201243D1*
X1531049Y4179343D1*
Y4164856D1*
X1560192Y4215731D2*
X1654868Y4128299D1*
X1560192Y4270202D2*
X1552780Y4284858D1*
X1531049Y4306758D1*
X1684012D1*
Y4382961D2*
X1531049Y4455905D1*
Y4353817D1*
X1387295Y5529240D2*
X1394539Y5521996D1*
X1401951Y5529240D1*
X1394539Y5536652D1*
X1387295Y5529240D1*
X1394539Y5478196D2*
Y5376108D1*
X1449010Y5478196D2*
Y5376108D1*
Y5449052D2*
X1470910Y5470952D1*
X1485566Y5478196D1*
X1507297D1*
X1521954Y5470952D1*
X1529197Y5449052D1*
Y5376108D1*
X1387288Y6922819D2*
Y6820732D1*
Y6893676D2*
X1409188Y6915576D1*
X1423844Y6922819D1*
X1445576D1*
X1460232Y6915576D1*
X1467476Y6893676D1*
Y6820732D1*
Y6893676D2*
X1489376Y6915576D1*
X1504032Y6922819D1*
X1525763D1*
X1540420Y6915576D1*
X1547832Y6893676D1*
Y6820732D1*
X3534336Y7333081D2*
D34*
X3592736Y7196964D1*
X3650912Y7333081D1*
X3830232D2*
Y7196964D1*
Y7303881D2*
X3810915Y7323423D1*
X3791374Y7333081D1*
X3762398D1*
X3742857Y7323423D1*
X3723540Y7303881D1*
X3713657Y7274681D1*
Y7255364D1*
X3723540Y7226164D1*
X3742857Y7206848D1*
X3762398Y7196964D1*
X3791374D1*
X3810915Y7206848D1*
X3830232Y7226164D1*
X3892977Y7401140D2*
Y7196964D1*
X3955722Y7333081D2*
X4014122Y7196964D1*
X4072298Y7333081D1*
X4135043Y7274681D2*
X4251618D1*
Y7294223D1*
X4241960Y7313764D1*
X4232301Y7323423D1*
X4212760Y7333081D1*
X4183560D1*
X4164243Y7323423D1*
X4144701Y7303881D1*
X4135043Y7274681D1*
Y7255364D1*
X4144701Y7226164D1*
X4164243Y7206848D1*
X4183560Y7196964D1*
X4212760D1*
X4232301Y7206848D1*
X4251618Y7226164D1*
X4645590Y7362050D2*
X4665131Y7371933D1*
X4694331Y7400909D1*
Y7196958D1*
X5131723Y7352392D2*
Y7362050D1*
X5141381Y7381592D1*
X5151040Y7391250D1*
X5170581Y7400909D1*
X5209440D1*
X5228757Y7391250D1*
X5238415Y7381592D1*
X5248298Y7362050D1*
Y7342733D1*
X5238415Y7323192D1*
X5219098Y7294216D1*
X5121840Y7196958D1*
X5257957D1*
X5649381Y7400909D2*
X5756073D1*
X5697898Y7323192D1*
X5727098D1*
X5746415Y7313533D1*
X5756073Y7303875D1*
X5765957Y7274675D1*
Y7255358D1*
X5756073Y7226158D1*
X5736757Y7206616D1*
X5707557Y7196958D1*
X5678357D1*
X5649381Y7206616D1*
X5639723Y7216499D1*
X5629840Y7235816D1*
X6607685Y7728789D2*
D33*
X6593197Y7758101D1*
X6549397Y7772589D1*
X6505597D1*
X6461797Y7758101D1*
X6447309Y7728789D1*
X6461797Y7699813D1*
X6491109Y7684989D1*
X6563885Y7670501D1*
X6593197Y7656013D1*
X6607685Y7626701D1*
Y7612213D1*
X6593197Y7583238D1*
X6549397Y7568413D1*
X6505597D1*
X6461797Y7583238D1*
X6447309Y7612213D1*
X6701802Y7772589D2*
Y7466326D1*
Y7728789D2*
X6731115Y7757764D1*
X6760090Y7772589D1*
X6803890D1*
X6833202Y7757764D1*
X6862178Y7728789D1*
X6877002Y7684989D1*
Y7655676D1*
X6862178Y7612213D1*
X6833202Y7582901D1*
X6803890Y7568413D1*
X6760090D1*
X6731115Y7582901D1*
X6701802Y7612213D1*
X6971120Y7684989D2*
X7145983D1*
Y7714301D1*
X7131495Y7743613D1*
X7117008Y7758101D1*
X7087695Y7772589D1*
X7043895D1*
X7014920Y7758101D1*
X6985608Y7728789D1*
X6971120Y7684989D1*
Y7656013D1*
X6985608Y7612213D1*
X7014920Y7583238D1*
X7043895Y7568413D1*
X7087695D1*
X7117008Y7583238D1*
X7145983Y7612213D1*
X7240101Y7684989D2*
X7414964D1*
Y7714301D1*
X7400476Y7743613D1*
X7385989Y7758101D1*
X7356676Y7772589D1*
X7312876D1*
X7283901Y7758101D1*
X7254589Y7728789D1*
X7240101Y7684989D1*
Y7656013D1*
X7254589Y7612213D1*
X7283901Y7583238D1*
X7312876Y7568413D1*
X7356676D1*
X7385989Y7583238D1*
X7414964Y7612213D1*
X7683945Y7874676D2*
Y7568413D1*
Y7728789D2*
X7654969Y7758101D1*
X7625657Y7772589D1*
X7581857D1*
X7552882Y7758101D1*
X7523569Y7728789D1*
X7509082Y7684989D1*
Y7656013D1*
X7523569Y7612213D1*
X7552882Y7583238D1*
X7581857Y7568413D1*
X7625657D1*
X7654969Y7583238D1*
X7683945Y7612213D1*
X7938438Y7728789D2*
X7923950Y7758101D1*
X7880150Y7772589D1*
X7836350D1*
X7792550Y7758101D1*
X7778062Y7728789D1*
X7792550Y7699813D1*
X7821862Y7684989D1*
X7894638Y7670501D1*
X7923950Y7656013D1*
X7938438Y7626701D1*
Y7612213D1*
X7923950Y7583238D1*
X7880150Y7568413D1*
X7836350D1*
X7792550Y7583238D1*
X7778062Y7612213D1*
X3046350Y2422949D2*
D32*
Y2306205D1*
X3039106Y2284473D1*
X3031862Y2277061D1*
X3017206Y2269817D1*
X2995306D1*
X2980818Y2277061D1*
X3046350Y2401049D2*
X3031862Y2415537D1*
X3017206Y2422949D1*
X2995306D1*
X2980818Y2415537D1*
X2966162Y2401049D1*
X2958918Y2379149D1*
Y2364493D1*
X2966162Y2342761D1*
X2980818Y2328105D1*
X2995306Y2320861D1*
X3017206D1*
X3031862Y2328105D1*
X3046350Y2342761D1*
X3093408Y2430193D2*
Y2328105D1*
Y2401049D2*
X3115308Y2422949D1*
X3129965Y2430193D1*
X3151696D1*
X3166352Y2422949D1*
X3173596Y2401049D1*
Y2328105D1*
X3308086Y2481237D2*
Y2328105D1*
Y2408293D2*
X3293599Y2422949D1*
X3278943Y2430193D1*
X3257043D1*
X3242555Y2422949D1*
X3227899Y2408293D1*
X3220655Y2386393D1*
Y2371905D1*
X3227899Y2350005D1*
X3242555Y2335517D1*
X3257043Y2328105D1*
X3278943D1*
X3293599Y2335517D1*
X3308086Y2350005D1*
M02*
