G04 DipTrace 3.1.0.1*
G04 Controller.GBO*
%MOMM*%
G04 #@! TF.FileFunction,Legend,Bot*
G04 #@! TF.Part,Single*
%ADD15C,0.3*%
%ADD32C,0.23529*%
%ADD35C,0.39216*%
%ADD36C,0.15686*%
%FSLAX35Y35*%
G04*
G71*
G90*
G75*
G01*
G04 BotSilk*
%LPD*%
X8181793Y3283167D2*
D15*
X8435793D1*
Y2521167D1*
X8181793D1*
Y3283167D1*
X2524000Y4619500D2*
X3032000D1*
Y4365500D1*
X2524000D1*
Y4619500D1*
X4429000D2*
X4937000D1*
Y4365500D1*
X4429000D1*
Y4619500D1*
X6080000D2*
X6588000D1*
Y4365500D1*
X6080000D1*
Y4619500D1*
X7731000D2*
X8239000D1*
Y4365500D1*
X7731000D1*
Y4619500D1*
X7762540Y1693108D2*
D32*
Y1846071D1*
X7835484Y1744152D1*
X7726153D1*
X7671850Y1707765D2*
X7679094Y1700352D1*
X7671850Y1693108D1*
X7664438Y1700352D1*
X7671850Y1707765D1*
X7588235Y1693108D2*
X7515291Y1846071D1*
X7617379D1*
X7468232Y1846240D2*
Y1693108D1*
X7395289Y1795196D2*
X7468232Y1722252D1*
X7439089Y1751396D2*
X7388045Y1693108D1*
X8564995Y3216332D2*
Y3085101D1*
X8630526Y3150632D2*
X8499295D1*
X8615275Y2912590D2*
X8531045D1*
X8546918Y2735240D2*
Y2582108D1*
Y2662296D2*
X8561406Y2676952D1*
X8576062Y2684196D1*
X8597962D1*
X8612450Y2676952D1*
X8627106Y2662296D1*
X8634350Y2640396D1*
Y2625908D1*
X8627106Y2604008D1*
X8612450Y2589521D1*
X8597962Y2582108D1*
X8576062D1*
X8561406Y2589521D1*
X8546918Y2604008D1*
X8431464Y2350488D2*
D35*
X8638110D1*
X8674329Y2338415D1*
X8686683Y2313988D1*
Y2289842D1*
X8516537Y2386988D2*
Y2301915D1*
X8431464Y2211411D2*
X8686683D1*
X8565110D2*
X8528610Y2174911D1*
X8516537Y2150484D1*
Y2113984D1*
X8528610Y2089838D1*
X8565110Y2077765D1*
X8686683D1*
X8589537Y1999333D2*
Y1853614D1*
X8565110D1*
X8540683Y1865687D1*
X8528610Y1877760D1*
X8516537Y1902187D1*
Y1938687D1*
X8528610Y1962833D1*
X8553037Y1987260D1*
X8589537Y1999333D1*
X8613683D1*
X8650183Y1987260D1*
X8674329Y1962833D1*
X8686683Y1938687D1*
Y1902187D1*
X8674329Y1877760D1*
X8650183Y1853614D1*
X8516537Y1775183D2*
X8686683D1*
X8589537D2*
X8553037Y1762829D1*
X8528610Y1738683D1*
X8516537Y1714256D1*
Y1677756D1*
Y1599324D2*
X8686683D1*
X8565110D2*
X8528610Y1562824D1*
X8516537Y1538398D1*
Y1502178D1*
X8528610Y1477751D1*
X8565110Y1465678D1*
X8686683D1*
X8565110D2*
X8528610Y1429178D1*
X8516537Y1404751D1*
Y1368532D1*
X8528610Y1344105D1*
X8565110Y1331752D1*
X8686683D1*
X2979653Y4311047D2*
D36*
X2989312D1*
X2999082Y4306217D1*
X3003912Y4291617D1*
Y4208959D1*
X3018512Y4277017D2*
X2984482D1*
X2948281Y4311047D2*
Y4208959D1*
Y4262417D2*
X2938510Y4272188D1*
X2928851Y4277017D1*
X2914251D1*
X2904593Y4272188D1*
X2894822Y4262417D1*
X2889993Y4247817D1*
Y4238159D1*
X2894822Y4223559D1*
X2904593Y4213900D1*
X2914251Y4208959D1*
X2928851D1*
X2938510Y4213900D1*
X2948281Y4223559D1*
X2858620Y4277017D2*
Y4208959D1*
Y4257588D2*
X2844020Y4272188D1*
X2834250Y4277017D1*
X2819762D1*
X2809991Y4272188D1*
X2805162Y4257588D1*
Y4208959D1*
Y4257588D2*
X2790562Y4272188D1*
X2780791Y4277017D1*
X2766303D1*
X2756533Y4272188D1*
X2751591Y4257588D1*
Y4208959D1*
X2661931Y4277017D2*
Y4208959D1*
Y4262417D2*
X2671589Y4272188D1*
X2681360Y4277017D1*
X2695848D1*
X2705618Y4272188D1*
X2715277Y4262417D1*
X2720218Y4247817D1*
Y4238159D1*
X2715277Y4223559D1*
X2705618Y4213900D1*
X2695848Y4208959D1*
X2681360D1*
X2671589Y4213900D1*
X2661931Y4223559D1*
X2630558Y4311047D2*
X2625729Y4306217D1*
X2620787Y4311047D1*
X2625729Y4315988D1*
X2630558Y4311047D1*
X2625729Y4277017D2*
Y4208959D1*
X2589415Y4277017D2*
Y4208959D1*
Y4257588D2*
X2574815Y4272188D1*
X2565044Y4277017D1*
X2550556D1*
X2540786Y4272188D1*
X2535956Y4257588D1*
Y4208959D1*
X4745107Y4326933D2*
X4754765D1*
X4764536Y4322104D1*
X4769365Y4307504D1*
Y4224846D1*
X4783965Y4292904D2*
X4749936D1*
X4713734Y4326933D2*
Y4224846D1*
Y4278304D2*
X4703963Y4288075D1*
X4694305Y4292904D1*
X4679705D1*
X4670046Y4288075D1*
X4660276Y4278304D1*
X4655446Y4263704D1*
Y4254046D1*
X4660276Y4239446D1*
X4670046Y4229787D1*
X4679705Y4224846D1*
X4694305D1*
X4703963Y4229787D1*
X4713734Y4239446D1*
X4624074Y4307392D2*
X4614303Y4312333D1*
X4599703Y4326821D1*
Y4224846D1*
X6408044Y4326933D2*
X6417703D1*
X6427474Y4322104D1*
X6432303Y4307504D1*
Y4224846D1*
X6446903Y4292904D2*
X6412874D1*
X6376672Y4326933D2*
Y4224846D1*
Y4278304D2*
X6366901Y4288075D1*
X6357243Y4292904D1*
X6342643D1*
X6332984Y4288075D1*
X6323213Y4278304D1*
X6318384Y4263704D1*
Y4254046D1*
X6323213Y4239446D1*
X6332984Y4229787D1*
X6342643Y4224846D1*
X6357243D1*
X6366901Y4229787D1*
X6376672Y4239446D1*
X6282070Y4302563D2*
Y4307392D1*
X6277241Y4317163D1*
X6272412Y4321992D1*
X6262641Y4326821D1*
X6243212D1*
X6233553Y4321992D1*
X6228724Y4317163D1*
X6223782Y4307392D1*
Y4297733D1*
X6228724Y4287963D1*
X6238382Y4273475D1*
X6287012Y4224846D1*
X6218953D1*
X8059048Y4326930D2*
X8068706D1*
X8078477Y4322101D1*
X8083306Y4307501D1*
Y4224842D1*
X8097906Y4292901D2*
X8063877D1*
X8027675Y4326930D2*
Y4224842D1*
Y4278301D2*
X8017904Y4288071D1*
X8008246Y4292901D1*
X7993646D1*
X7983987Y4288071D1*
X7974217Y4278301D1*
X7969387Y4263701D1*
Y4254042D1*
X7974217Y4239442D1*
X7983987Y4229784D1*
X7993646Y4224842D1*
X8008246D1*
X8017904Y4229784D1*
X8027675Y4239442D1*
X7928244Y4326818D2*
X7874898D1*
X7903986Y4287959D1*
X7889386D1*
X7879727Y4283130D1*
X7874898Y4278301D1*
X7869956Y4263701D1*
Y4254042D1*
X7874898Y4239442D1*
X7884556Y4229671D1*
X7899156Y4224842D1*
X7913756D1*
X7928244Y4229671D1*
X7933073Y4234613D1*
X7938015Y4244271D1*
M02*
